<svg width="169" height="50" viewBox="0 0 169 50" fill="none" xmlns="http://www.w3.org/2000/svg">
<path d="M162.5 0H6.25C2.79822 0 0 2.79822 0 6.25V43.75C0 47.2018 2.79822 50 6.25 50H162.5C165.952 50 168.75 47.2018 168.75 43.75V6.25C168.75 2.79822 165.952 0 162.5 0Z" fill="black"/>
<path d="M162.5 1C163.892 1 165.228 1.55312 166.212 2.53769C167.197 3.52226 167.75 4.85761 167.75 6.25V43.75C167.75 45.1424 167.197 46.4777 166.212 47.4623C165.228 48.4469 163.892 49 162.5 49H6.25C4.85761 49 3.52226 48.4469 2.53769 47.4623C1.55312 46.4777 1 45.1424 1 43.75V6.25C1 4.85761 1.55312 3.52226 2.53769 2.53769C3.52226 1.55312 4.85761 1 6.25 1H162.5ZM162.5 0H6.25C4.5924 0 3.00269 0.65848 1.83058 1.83058C0.65848 3.00269 0 4.5924 0 6.25V43.75C0 45.4076 0.65848 46.9973 1.83058 48.1694C3.00269 49.3415 4.5924 50 6.25 50H162.5C164.158 50 165.747 49.3415 166.919 48.1694C168.092 46.9973 168.75 45.4076 168.75 43.75V6.25C168.75 4.5924 168.092 3.00269 166.919 1.83058C165.747 0.65848 164.158 0 162.5 0Z" fill="#A6A6A6"/>
<path d="M32.5507 27.0092H17.1328C16.0512 27.0092 15.1768 27.8836 15.1768 28.9652C15.1768 30.0467 16.0512 30.9212 17.1328 30.9212H34.8979C34.8979 30.9212 35.8183 30.0007 34.8288 28.5049C33.8163 27.0092 32.5507 27.0092 32.5507 27.0092Z" fill="white"/>
<path d="M31.7683 10.5558L22.1954 27.1243C21.6661 28.0678 21.9653 29.2644 22.9087 29.7937C23.8522 30.3229 25.0488 30.0238 25.5781 29.0803L35.151 12.5118C35.6803 11.5683 35.3811 10.3717 34.4376 9.84245C33.4942 9.29016 32.2976 9.61233 31.7683 10.5558Z" fill="white"/>
<path d="M43.4812 34.2348L33.6552 17.1831C33.6552 17.1831 32.2285 18.2877 32.2285 20.4738C32.2285 22.6599 33.1259 24.1327 33.1259 24.1327L40.0985 36.2139C40.6278 37.1573 41.8244 37.4795 42.7679 36.9272C43.6884 36.3749 44.0105 35.1783 43.4812 34.2348Z" fill="white"/>
<path d="M44.4708 27.0092H39.017C37.9355 27.0092 37.061 27.8836 37.061 28.9652C37.061 30.0467 37.9355 30.9212 39.017 30.9212H44.4708C45.5523 30.9212 46.4268 30.0467 46.4268 28.9652C46.4268 27.9066 45.5523 27.0092 44.4708 27.0092Z" fill="white"/>
<path d="M31.8833 14.1456L29.8123 10.5328C29.283 9.61228 28.0634 9.29012 27.1429 9.81939C26.2225 10.3487 25.9003 11.5683 26.4296 12.4888L28.5006 16.1016C29.0299 17.0221 30.2495 17.3442 31.17 16.815C32.0905 16.2857 32.4126 15.0891 31.8833 14.1456Z" fill="white"/>
<path d="M18.0994 34.2119L19.342 32.0718C19.342 32.0718 19.6412 31.4735 20.8148 31.4735C22.0574 31.4735 23.254 32.509 23.3461 32.9002L21.4821 36.1679C20.9528 37.1114 19.7562 37.4336 18.8127 36.8813C17.8693 36.352 17.5701 35.1554 18.0994 34.2119Z" fill="white"/>
<path d="M68.1497 38.0997H65.4449L63.9633 33.444H58.8134L57.4021 38.0997H54.7687L59.871 22.2498H63.0224L68.1497 38.0997ZM63.5167 31.4908L62.1768 27.352C62.0351 26.9292 61.7695 25.9335 61.3776 24.3662H61.33C61.174 25.0403 60.9227 26.036 60.5773 27.352L59.2612 31.4908H63.5167V31.4908Z" fill="white"/>
<path d="M81.2707 32.2447C81.2707 34.1884 80.7455 35.7248 79.695 36.8527C78.7541 37.8567 77.5857 38.3581 76.1911 38.3581C74.6856 38.3581 73.6042 37.8174 72.9456 36.736H72.8979V42.7565H70.3587V30.4332C70.3587 29.2112 70.3266 27.9571 70.2646 26.6708H72.4978L72.6395 28.4823H72.6871C73.5339 27.1174 74.819 26.4362 76.5436 26.4362C77.8918 26.4362 79.0173 26.9685 79.9177 28.0345C80.8205 29.1016 81.2707 30.5046 81.2707 32.2447ZM78.6839 32.3376C78.6839 31.2252 78.4337 30.3081 77.9311 29.5864C77.3821 28.8337 76.6448 28.4573 75.7206 28.4573C75.0942 28.4573 74.5248 28.6669 74.0163 29.0802C73.5065 29.497 73.1731 30.0413 73.017 30.7154C72.9384 31.0299 72.8991 31.2871 72.8991 31.4896V33.3952C72.8991 34.2265 73.154 34.928 73.6638 35.5009C74.1735 36.0738 74.8357 36.3596 75.6504 36.3596C76.6067 36.3596 77.3511 35.9904 77.8835 35.2544C78.4171 34.5171 78.6839 33.5453 78.6839 32.3376Z" fill="white"/>
<path d="M94.4162 32.2447C94.4162 34.1884 93.8909 35.7248 92.8393 36.8527C91.8996 37.8567 90.7312 38.3581 89.3365 38.3581C87.8311 38.3581 86.7496 37.8174 86.0922 36.736H86.0446V42.7565H83.5053V30.4332C83.5053 29.2112 83.4732 27.9571 83.4113 26.6708H85.6444L85.7861 28.4823H85.8338C86.6794 27.1174 87.9645 26.4362 89.6902 26.4362C91.0373 26.4362 92.1628 26.9685 93.0656 28.0345C93.9648 29.1016 94.4162 30.5046 94.4162 32.2447ZM91.8293 32.3376C91.8293 31.2252 91.578 30.3081 91.0754 29.5864C90.5263 28.8337 89.7915 28.4573 88.8661 28.4573C88.2384 28.4573 87.6703 28.6669 87.1605 29.0802C86.6508 29.497 86.3185 30.0413 86.1625 30.7154C86.0851 31.0299 86.0446 31.2871 86.0446 31.4896V33.3952C86.0446 34.2265 86.2994 34.928 86.8068 35.5009C87.3166 36.0726 87.9788 36.3596 88.7958 36.3596C89.7522 36.3596 90.4966 35.9904 91.0289 35.2544C91.5625 34.5171 91.8293 33.5453 91.8293 32.3376Z" fill="white"/>
<path d="M109.113 33.6549C109.113 35.0031 108.645 36.1001 107.706 36.9469C106.673 37.8723 105.235 38.3344 103.388 38.3344C101.683 38.3344 100.315 38.0057 99.2803 37.347L99.8687 35.2306C100.983 35.9047 102.207 36.243 103.539 36.243C104.496 36.243 105.24 36.0262 105.775 35.5951C106.307 35.1639 106.573 34.5851 106.573 33.8633C106.573 33.2202 106.354 32.6783 105.914 32.2388C105.477 31.7993 104.747 31.3908 103.728 31.0133C100.953 29.9783 99.5662 28.4621 99.5662 26.4684C99.5662 25.1654 100.052 24.0971 101.025 23.2658C101.995 22.4332 103.288 22.0176 104.905 22.0176C106.348 22.0176 107.546 22.2689 108.502 22.7703L107.867 24.8403C106.974 24.3543 105.964 24.1114 104.834 24.1114C103.941 24.1114 103.243 24.3317 102.743 24.77C102.32 25.1618 102.108 25.6394 102.108 26.2052C102.108 26.8316 102.35 27.3497 102.835 27.757C103.258 28.1334 104.027 28.5407 105.141 28.9802C106.505 29.5293 107.507 30.1712 108.151 30.9073C108.793 31.6409 109.113 32.5592 109.113 33.6549Z" fill="white"/>
<path d="M117.509 28.5764H114.71V34.1253C114.71 35.5367 115.203 36.2418 116.191 36.2418C116.645 36.2418 117.021 36.2025 117.319 36.1239L117.389 38.0521C116.889 38.2391 116.231 38.3332 115.415 38.3332C114.412 38.3332 113.628 38.0271 113.063 37.4161C112.499 36.8039 112.216 35.7773 112.216 34.335V28.5741H110.548V26.6684H112.216V24.5758L114.71 23.8231V26.6684H117.509V28.5764Z" fill="white"/>
<path d="M130.137 32.2913C130.137 34.048 129.634 35.4904 128.631 36.6182C127.58 37.7795 126.184 38.3583 124.444 38.3583C122.767 38.3583 121.432 37.8021 120.436 36.6897C119.44 35.5773 118.943 34.1731 118.943 32.4807C118.943 30.7096 119.455 29.259 120.483 28.1311C121.508 27.002 122.892 26.4375 124.632 26.4375C126.309 26.4375 127.658 26.9937 128.677 28.1073C129.651 29.1875 130.137 30.5822 130.137 32.2913ZM127.502 32.3735C127.502 31.3194 127.277 30.4155 126.821 29.6616C126.289 28.7492 125.528 28.2943 124.542 28.2943C123.521 28.2943 122.745 28.7504 122.213 29.6616C121.757 30.4167 121.532 31.3349 121.532 32.4211C121.532 33.4752 121.757 34.3791 122.213 35.1319C122.762 36.0442 123.529 36.4991 124.519 36.4991C125.488 36.4991 126.249 36.0346 126.798 35.108C127.267 34.3398 127.502 33.4263 127.502 32.3735Z" fill="white"/>
<path d="M138.39 28.9039C138.139 28.8575 137.871 28.8337 137.59 28.8337C136.697 28.8337 136.006 29.1707 135.52 29.846C135.097 30.4415 134.885 31.1942 134.885 32.103V38.0997H132.347L132.371 30.27C132.371 28.9528 132.339 27.7534 132.276 26.672H134.487L134.58 28.8587H134.651C134.919 28.1071 135.341 27.5021 135.92 27.0483C136.486 26.6398 137.097 26.4362 137.756 26.4362C137.99 26.4362 138.202 26.4528 138.39 26.4826V28.9039Z" fill="white"/>
<path d="M149.747 31.8446C149.747 32.2996 149.717 32.6831 149.654 32.9963H142.036C142.066 34.1254 142.434 34.9889 143.141 35.5844C143.783 36.1167 144.613 36.3835 145.633 36.3835C146.761 36.3835 147.79 36.2037 148.715 35.8428L149.113 37.6055C148.032 38.0771 146.755 38.3118 145.282 38.3118C143.509 38.3118 142.118 37.7901 141.106 36.748C140.096 35.7058 139.59 34.3064 139.59 32.5509C139.59 30.8275 140.06 29.3923 141.002 28.2478C141.988 27.0258 143.321 26.4148 144.998 26.4148C146.645 26.4148 147.892 27.0258 148.739 28.2478C149.41 29.2184 149.747 30.419 149.747 31.8446ZM147.325 31.186C147.342 30.4333 147.176 29.783 146.832 29.2339C146.393 28.5276 145.717 28.1751 144.809 28.1751C143.979 28.1751 143.303 28.5193 142.788 29.2101C142.365 29.7591 142.113 30.4178 142.036 31.1848H147.325V31.186Z" fill="white"/>
<path d="M62.6774 12.4992C62.6774 13.901 62.257 14.9563 61.4173 15.6649C60.6396 16.3188 59.5344 16.6463 58.1028 16.6463C57.3929 16.6463 56.7855 16.6153 56.2769 16.5534V8.89403C56.9403 8.78684 57.6549 8.73206 58.4267 8.73206C59.7904 8.73206 60.8183 9.02862 61.5114 9.62174C62.288 10.2923 62.6774 11.251 62.6774 12.4992ZM61.3614 12.5338C61.3614 11.625 61.1208 10.9283 60.6396 10.4423C60.1584 9.9576 59.4558 9.71464 58.5303 9.71464C58.1373 9.71464 57.8026 9.74084 57.5251 9.79563V15.6185C57.6788 15.6423 57.9598 15.653 58.3684 15.653C59.3235 15.653 60.0608 15.3874 60.5801 14.8562C61.0993 14.325 61.3614 13.5509 61.3614 12.5338Z" fill="white"/>
<path d="M69.6556 13.7235C69.6556 14.587 69.409 15.2944 68.916 15.8494C68.3991 16.4199 67.7142 16.7046 66.8591 16.7046C66.0349 16.7046 65.3787 16.4318 64.8892 15.884C64.4009 15.3373 64.1567 14.6477 64.1567 13.8164C64.1567 12.9469 64.408 12.2335 64.913 11.6797C65.418 11.1259 66.0969 10.8484 66.952 10.8484C67.7762 10.8484 68.4384 11.1211 68.9398 11.6678C69.4162 12.199 69.6556 12.885 69.6556 13.7235ZM68.361 13.764C68.361 13.2459 68.249 12.8016 68.0263 12.4312C67.7643 11.9834 67.3915 11.7595 66.9067 11.7595C66.4053 11.7595 66.0242 11.9834 65.7622 12.4312C65.5383 12.8016 65.4275 13.253 65.4275 13.7866C65.4275 14.3047 65.5395 14.7489 65.7622 15.1193C66.0325 15.5672 66.4089 15.7911 66.8948 15.7911C67.3712 15.7911 67.7452 15.5636 68.0144 15.1074C68.2454 14.7299 68.361 14.2821 68.361 13.764Z" fill="white"/>
<path d="M79.0122 10.9626L77.2555 16.5771H76.1121L75.3844 14.1391C75.1998 13.5305 75.0498 12.9254 74.933 12.3252H74.9104C74.802 12.9421 74.652 13.5459 74.459 14.1391L73.686 16.5771H72.5296L70.8777 10.9626H72.1604L72.7952 13.6317C72.9488 14.2629 73.0751 14.8644 73.1763 15.4337H73.1989C73.2918 14.9644 73.4455 14.3665 73.6622 13.6436L74.459 10.9638H75.4761L76.2396 13.5864C76.4242 14.226 76.5742 14.8418 76.6898 15.4349H76.7243C76.8089 14.8572 76.9363 14.2415 77.1054 13.5864L77.7867 10.9638H79.0122V10.9626Z" fill="white"/>
<path d="M85.4828 16.577H84.2346V13.3613C84.2346 12.3704 83.8583 11.8749 83.1032 11.8749C82.7328 11.8749 82.4338 12.0107 82.2016 12.2835C81.9717 12.5562 81.855 12.8778 81.855 13.2458V16.5759H80.6068V12.5669C80.6068 12.0738 80.5914 11.5391 80.5616 10.9603H81.6585L81.7169 11.838H81.7514C81.8967 11.5653 82.1135 11.3402 82.3981 11.1603C82.7364 10.9507 83.1151 10.8447 83.5296 10.8447C84.0536 10.8447 84.4895 11.0138 84.8361 11.3533C85.2672 11.7689 85.4828 12.3895 85.4828 13.2136V16.577V16.577Z" fill="white"/>
<path d="M88.9247 16.5772H87.6777V8.3866H88.9247V16.5772Z" fill="white"/>
<path d="M96.2735 13.7235C96.2735 14.587 96.0269 15.2944 95.5338 15.8494C95.0169 16.4199 94.3309 16.7046 93.477 16.7046C92.6516 16.7046 91.9953 16.4318 91.507 15.884C91.0187 15.3373 90.7746 14.6477 90.7746 13.8164C90.7746 12.9469 91.0259 12.2335 91.5309 11.6797C92.0358 11.1259 92.7147 10.8484 93.5687 10.8484C94.394 10.8484 95.055 11.1211 95.5577 11.6678C96.0341 12.199 96.2735 12.885 96.2735 13.7235ZM94.9776 13.764C94.9776 13.2459 94.8657 12.8016 94.643 12.4312C94.3821 11.9834 94.0081 11.7595 93.5246 11.7595C93.022 11.7595 92.6409 11.9834 92.38 12.4312C92.1561 12.8016 92.0454 13.253 92.0454 13.7866C92.0454 14.3047 92.1573 14.7489 92.38 15.1193C92.6504 15.5672 93.0268 15.7911 93.5127 15.7911C93.9891 15.7911 94.3619 15.5636 94.631 15.1074C94.8633 14.7299 94.9776 14.2821 94.9776 13.764Z" fill="white"/>
<path d="M102.314 16.5771H101.193L101.1 15.9304H101.066C100.682 16.4461 100.136 16.7046 99.4259 16.7046C98.8959 16.7046 98.4671 16.5343 98.1444 16.196C97.8514 15.8887 97.7049 15.5064 97.7049 15.0526C97.7049 14.3666 97.9907 13.8438 98.566 13.4817C99.1401 13.1196 99.9476 12.9422 100.987 12.9505V12.8457C100.987 12.1061 100.599 11.7369 99.8213 11.7369C99.2675 11.7369 98.7792 11.8762 98.3576 12.1525L98.1039 11.3331C98.6255 11.0104 99.2699 10.8484 100.03 10.8484C101.497 10.8484 102.233 11.6225 102.233 13.1709V15.2384C102.233 15.7994 102.26 16.246 102.314 16.5771ZM101.018 14.6477V13.7818C99.6415 13.758 98.9531 14.1356 98.9531 14.9133C98.9531 15.2063 99.0317 15.4254 99.1925 15.5719C99.3532 15.7184 99.5581 15.7911 99.8023 15.7911C100.076 15.7911 100.332 15.7041 100.566 15.5314C100.8 15.3575 100.944 15.1372 100.998 14.8668C101.011 14.8061 101.018 14.7323 101.018 14.6477Z" fill="white"/>
<path d="M109.406 16.5772H108.299L108.24 15.6756H108.206C107.852 16.3616 107.249 16.7046 106.403 16.7046C105.726 16.7046 105.163 16.439 104.716 15.9078C104.269 15.3766 104.047 14.687 104.047 13.8402C104.047 12.9315 104.289 12.1954 104.774 11.6333C105.245 11.1092 105.821 10.8472 106.507 10.8472C107.261 10.8472 107.789 11.1009 108.089 11.6095H108.113V8.3866H109.362V15.0646C109.362 15.6113 109.377 16.115 109.406 16.5772ZM108.113 14.2094V13.2733C108.113 13.1113 108.101 12.9803 108.078 12.8803C108.008 12.5801 107.857 12.3276 107.627 12.124C107.395 11.9203 107.115 11.8179 106.792 11.8179C106.326 11.8179 105.962 12.0025 105.694 12.3729C105.428 12.7433 105.294 13.2161 105.294 13.7938C105.294 14.3488 105.421 14.799 105.677 15.1456C105.948 15.5148 106.312 15.6994 106.768 15.6994C107.178 15.6994 107.505 15.5457 107.754 15.2373C107.995 14.9526 108.113 14.6096 108.113 14.2094Z" fill="white"/>
<path d="M120.082 13.7235C120.082 14.587 119.835 15.2944 119.342 15.8494C118.825 16.4199 118.141 16.7046 117.285 16.7046C116.462 16.7046 115.806 16.4318 115.315 15.884C114.827 15.3373 114.583 14.6477 114.583 13.8164C114.583 12.9469 114.834 12.2335 115.339 11.6797C115.844 11.1259 116.523 10.8484 117.379 10.8484C118.202 10.8484 118.866 11.1211 119.366 11.6678C119.842 12.199 120.082 12.885 120.082 13.7235ZM118.788 13.764C118.788 13.2459 118.676 12.8016 118.454 12.4312C118.19 11.9834 117.819 11.7595 117.333 11.7595C116.833 11.7595 116.451 11.9834 116.188 12.4312C115.964 12.8016 115.854 13.253 115.854 13.7866C115.854 14.3047 115.965 14.7489 116.188 15.1193C116.459 15.5672 116.835 15.7911 117.321 15.7911C117.797 15.7911 118.172 15.5636 118.442 15.1074C118.671 14.7299 118.788 14.2821 118.788 13.764Z" fill="white"/>
<path d="M126.793 16.577H125.546V13.3613C125.546 12.3704 125.169 11.8749 124.413 11.8749C124.043 11.8749 123.744 12.0107 123.513 12.2835C123.282 12.5562 123.166 12.8778 123.166 13.2458V16.5759H121.917V12.5669C121.917 12.0738 121.902 11.5391 121.873 10.9603H122.968L123.027 11.838H123.061C123.208 11.5653 123.425 11.3402 123.708 11.1603C124.047 10.9507 124.425 10.8447 124.841 10.8447C125.363 10.8447 125.799 11.0138 126.146 11.3533C126.578 11.7689 126.793 12.3895 126.793 13.2136V16.577V16.577Z" fill="white"/>
<path d="M135.193 11.8976H133.818V14.625C133.818 15.3182 134.063 15.6648 134.546 15.6648C134.77 15.6648 134.956 15.6457 135.102 15.6064L135.134 16.5533C134.888 16.6462 134.564 16.6926 134.165 16.6926C133.672 16.6926 133.288 16.5426 133.011 16.2424C132.732 15.9423 132.594 15.4373 132.594 14.7287V11.8976H131.773V10.9627H132.594V9.93367L133.817 9.56445V10.9615H135.192V11.8976H135.193Z" fill="white"/>
<path d="M141.801 16.5772H140.552V13.3853C140.552 12.3789 140.175 11.8751 139.421 11.8751C138.842 11.8751 138.447 12.1669 138.23 12.7504C138.193 12.8731 138.172 13.0232 138.172 13.1995V16.576H136.925V8.3866H138.172V11.7702H138.196C138.589 11.1545 139.152 10.8472 139.882 10.8472C140.399 10.8472 140.827 11.0163 141.166 11.3558C141.589 11.7786 141.801 12.4074 141.801 13.2388V16.5772V16.5772Z" fill="white"/>
<path d="M148.617 13.5043C148.617 13.7282 148.6 13.9164 148.571 14.07H144.827C144.844 14.6251 145.023 15.0479 145.369 15.3408C145.686 15.6029 146.095 15.7339 146.595 15.7339C147.149 15.7339 147.654 15.6457 148.109 15.4683L148.304 16.3353C147.771 16.5664 147.145 16.6819 146.42 16.6819C145.55 16.6819 144.865 16.4259 144.37 15.9137C143.872 15.4016 143.626 14.7144 143.626 13.8521C143.626 13.0053 143.855 12.3002 144.319 11.738C144.802 11.1378 145.456 10.8376 146.282 10.8376C147.089 10.8376 147.702 11.1378 148.117 11.738C148.452 12.2145 148.617 12.804 148.617 13.5043ZM147.426 13.1816C147.436 12.8111 147.353 12.492 147.184 12.2228C146.968 11.8762 146.638 11.7023 146.191 11.7023C145.784 11.7023 145.451 11.8714 145.198 12.2109C144.99 12.4812 144.868 12.804 144.827 13.1816H147.426Z" fill="white"/>
</svg>
