<svg width="169" height="50" viewBox="0 0 169 50" fill="none" xmlns="http://www.w3.org/2000/svg">
<path d="M162.5 0H6.25C2.79822 0 0 2.79822 0 6.25V43.75C0 47.2018 2.79822 50 6.25 50H162.5C165.952 50 168.75 47.2018 168.75 43.75V6.25C168.75 2.79822 165.952 0 162.5 0Z" fill="black"/>
<path d="M162.5 1C163.892 1 165.228 1.55312 166.212 2.53769C167.197 3.52226 167.75 4.85761 167.75 6.25V43.75C167.75 45.1424 167.197 46.4777 166.212 47.4623C165.228 48.4469 163.892 49 162.5 49H6.25C4.85761 49 3.52226 48.4469 2.53769 47.4623C1.55312 46.4777 1 45.1424 1 43.75V6.25C1 4.85761 1.55312 3.52226 2.53769 2.53769C3.52226 1.55312 4.85761 1 6.25 1H162.5ZM162.5 0H6.25C4.5924 0 3.00269 0.65848 1.83058 1.83058C0.65848 3.00269 0 4.5924 0 6.25V43.75C0 45.4076 0.65848 46.9973 1.83058 48.1694C3.00269 49.3415 4.5924 50 6.25 50H162.5C164.158 50 165.747 49.3415 166.919 48.1694C168.092 46.9973 168.75 45.4076 168.75 43.75V6.25C168.75 4.5924 168.092 3.00269 166.919 1.83058C165.747 0.65848 164.158 0 162.5 0Z" fill="#A6A6A6"/>
<path d="M85.1751 27.1875C84.1254 27.1925 83.1008 27.5082 82.2305 28.095C81.3601 28.6817 80.6831 29.5131 80.2848 30.4843C79.8866 31.4554 79.7849 32.5228 79.9927 33.5517C80.2005 34.5806 80.7085 35.5248 81.4524 36.2653C82.1964 37.0058 83.143 37.5092 84.1728 37.7122C85.2027 37.9152 86.2695 37.8085 87.2388 37.4057C88.2081 37.0029 89.0363 36.322 89.619 35.4489C90.2016 34.5758 90.5126 33.5497 90.5126 32.5C90.5228 31.7974 90.3915 31.1 90.1265 30.4492C89.8616 29.7984 89.4684 29.2076 88.9704 28.7119C88.4724 28.2162 87.8797 27.8258 87.2277 27.5639C86.5757 27.302 85.8776 27.174 85.1751 27.1875V27.1875ZM85.1751 35.725C84.5296 35.7702 83.8854 35.6201 83.3263 35.2943C82.7672 34.9684 82.319 34.482 82.0401 33.8981C81.7612 33.3142 81.6643 32.6599 81.7622 32.0202C81.86 31.3806 82.148 30.7851 82.5888 30.3113C83.0295 29.8375 83.6026 29.5073 84.2335 29.3635C84.8645 29.2197 85.5241 29.2691 86.1266 29.5051C86.7291 29.7412 87.2466 30.153 87.612 30.6872C87.9773 31.2213 88.1735 31.8529 88.1751 32.5C88.1952 32.91 88.133 33.3199 87.9922 33.7056C87.8514 34.0912 87.6349 34.4447 87.3553 34.7452C87.0757 35.0458 86.7387 35.2874 86.3643 35.4556C85.9898 35.6239 85.5855 35.7155 85.1751 35.725ZM73.5376 27.1875C72.4874 27.19 71.4615 27.5037 70.5895 28.0889C69.7175 28.6742 69.0386 29.5047 68.6384 30.4757C68.2382 31.4466 68.1348 32.5144 68.3412 33.5441C68.5476 34.5738 69.0545 35.5192 69.798 36.2609C70.5415 37.0026 71.4881 37.5074 72.5182 37.7113C73.5484 37.9153 74.616 37.8094 75.586 37.4069C76.556 37.0045 77.3849 36.3236 77.9681 35.4502C78.5513 34.5768 78.8626 33.5502 78.8626 32.5C78.8728 31.7974 78.7415 31.1 78.4765 30.4492C78.2116 29.7984 77.8184 29.2076 77.3204 28.7119C76.8224 28.2162 76.2297 27.8258 75.5777 27.5639C74.9257 27.302 74.2276 27.174 73.5251 27.1875H73.5376ZM73.5376 35.725C72.8917 35.7727 72.2465 35.6249 71.6859 35.3007C71.1252 34.9766 70.6752 34.4912 70.3943 33.9076C70.1134 33.3241 70.0146 32.6696 70.111 32.0292C70.2073 31.3888 70.4941 30.7922 70.9342 30.3171C71.3743 29.8421 71.9472 29.5105 72.5784 29.3656C73.2096 29.2207 73.8698 29.2691 74.473 29.5046C75.0763 29.7402 75.5946 30.1519 75.9606 30.6861C76.3266 31.2204 76.5233 31.8524 76.5251 32.5C76.5452 32.91 76.483 33.3199 76.3422 33.7056C76.2014 34.0912 75.9849 34.4447 75.7053 34.7452C75.4257 35.0458 75.0887 35.2874 74.7143 35.4556C74.3398 35.6239 73.9355 35.7155 73.5251 35.725H73.5376ZM59.6751 28.825V31.075H65.0751C64.9904 32.1348 64.5499 33.1348 63.8251 33.9125C63.2848 34.4628 62.6354 34.8939 61.9185 35.1781C61.2016 35.4623 60.4331 35.5932 59.6626 35.5625C58.0713 35.5625 56.5452 34.9304 55.4199 33.8052C54.2947 32.68 53.6626 31.1538 53.6626 29.5625C53.6626 27.9712 54.2947 26.4451 55.4199 25.3199C56.5452 24.1947 58.0713 23.5625 59.6626 23.5625C61.1848 23.5377 62.6548 24.1176 63.7501 25.175L65.3376 23.5875C64.5982 22.8388 63.716 22.2461 62.7433 21.8446C61.7707 21.4431 60.7273 21.2409 59.6751 21.25C58.5638 21.2068 57.4553 21.3883 56.4159 21.7837C55.3764 22.1792 54.4275 22.7804 53.626 23.5513C52.8245 24.3222 52.1869 25.247 51.7513 26.2703C51.3158 27.2935 51.0913 28.3942 51.0913 29.5063C51.0913 30.6184 51.3158 31.719 51.7513 32.7423C52.1869 33.7655 52.8245 34.6903 53.626 35.4613C54.4275 36.2322 55.3764 36.8334 56.4159 37.2288C57.4553 37.6242 58.5638 37.8058 59.6751 37.7625C60.745 37.8109 61.8129 37.6295 62.8069 37.2306C63.8009 36.8317 64.6979 36.2246 65.4376 35.45C66.7472 34.0112 67.4464 32.1197 67.3876 30.175C67.3916 29.7013 67.3498 29.2282 67.2626 28.7625L59.6751 28.825ZM116.313 30.575C115.987 29.6159 115.377 28.7785 114.564 28.1736C113.752 27.5687 112.775 27.2248 111.763 27.1875C111.079 27.1862 110.402 27.3251 109.774 27.5957C109.146 27.8663 108.58 28.2628 108.112 28.7607C107.643 29.2586 107.282 29.8473 107.05 30.4905C106.818 31.1337 106.72 31.8176 106.763 32.5C106.747 33.1987 106.873 33.8932 107.132 34.5421C107.392 35.1911 107.779 35.7811 108.271 36.277C108.764 36.7729 109.351 37.1644 109.998 37.4283C110.645 37.6921 111.339 37.8228 112.038 37.8125C112.912 37.8172 113.774 37.605 114.546 37.1949C115.318 36.7848 115.977 36.1896 116.463 35.4625L114.65 34.2125C114.38 34.6635 113.997 35.0365 113.539 35.2951C113.081 35.5536 112.563 35.6889 112.038 35.6875C111.496 35.7082 110.961 35.5654 110.502 35.2778C110.043 34.9903 109.68 34.5712 109.463 34.075L116.575 31.1375L116.313 30.575ZM109.063 32.35C109.037 31.9634 109.089 31.5756 109.216 31.2093C109.342 30.8431 109.54 30.5057 109.799 30.217C110.057 29.9283 110.371 29.6941 110.721 29.5281C111.071 29.362 111.451 29.2675 111.838 29.25C112.241 29.2235 112.643 29.3159 112.994 29.5159C113.345 29.7159 113.63 30.0147 113.813 30.375L109.063 32.35ZM103.288 37.5H105.625V21.875H103.288V37.5ZM99.4626 28.375H99.3751C99.0228 27.9811 98.5912 27.6662 98.1087 27.4508C97.6261 27.2353 97.1035 27.1243 96.5751 27.125C95.2091 27.1913 93.9209 27.7806 92.9775 28.7708C92.0342 29.761 91.508 31.0762 91.508 32.4438C91.508 33.8114 92.0342 35.1266 92.9775 36.1168C93.9209 37.107 95.2091 37.6963 96.5751 37.7625C97.1048 37.7714 97.63 37.6641 98.1138 37.4482C98.5975 37.2322 99.0281 36.9128 99.3751 36.5125H99.4501V37.275C99.4501 39.3125 98.3626 40.4 96.6126 40.4C96.0297 40.3864 95.4641 40.1996 94.9878 39.8635C94.5114 39.5274 94.1458 39.0571 93.9376 38.5125L91.9001 39.3625C92.2836 40.2955 92.9371 41.0926 93.7768 41.6516C94.6164 42.2106 95.6039 42.5061 96.6126 42.5C99.3501 42.5 101.613 40.8875 101.613 36.9625V27.5H99.4626V28.375ZM96.7876 35.725C95.9813 35.654 95.2308 35.2834 94.6842 34.6865C94.1375 34.0895 93.8343 33.3095 93.8343 32.5C93.8343 31.6906 94.1375 30.9105 94.6842 30.3136C95.2308 29.7166 95.9813 29.3461 96.7876 29.275C97.1874 29.2955 97.579 29.3959 97.9394 29.5701C98.2998 29.7443 98.6217 29.9889 98.8861 30.2894C99.1506 30.5899 99.3522 30.9404 99.4791 31.32C99.606 31.6997 99.6556 32.1009 99.6251 32.5C99.6592 32.9009 99.6116 33.3045 99.4853 33.6865C99.359 34.0684 99.1565 34.4208 98.89 34.7223C98.6236 35.0237 98.2988 35.268 97.9353 35.4404C97.5718 35.6127 97.1771 35.7096 96.7751 35.725H96.7876ZM127.263 21.875H121.675V37.5H124.013V31.575H127.275C127.941 31.6229 128.61 31.533 129.24 31.3109C129.87 31.0889 130.447 30.7394 130.936 30.2844C131.425 29.8293 131.815 29.2785 132.082 28.6661C132.348 28.0537 132.486 27.3929 132.486 26.725C132.486 26.0571 132.348 25.3964 132.082 24.784C131.815 24.1716 131.425 23.6207 130.936 23.1657C130.447 22.7106 129.87 22.3612 129.24 22.1391C128.61 21.9171 127.941 21.8272 127.275 21.875H127.263ZM127.263 29.375H124V24.05H127.313C128.024 24.05 128.706 24.3325 129.209 24.8353C129.711 25.3382 129.994 26.0202 129.994 26.7313C129.994 27.4424 129.711 28.1244 129.209 28.6272C128.706 29.13 128.024 29.4125 127.313 29.4125L127.263 29.375ZM141.675 27.125C140.824 27.0742 139.977 27.273 139.237 27.6972C138.498 28.1213 137.898 28.7523 137.513 29.5125L139.588 30.375C139.792 29.998 140.102 29.6885 140.479 29.4843C140.857 29.2802 141.285 29.1901 141.713 29.225C142.009 29.1904 142.31 29.2152 142.597 29.2979C142.884 29.3807 143.152 29.5198 143.384 29.7072C143.617 29.8945 143.81 30.1263 143.952 30.3891C144.095 30.6518 144.183 30.9402 144.213 31.2375V31.4C143.462 31.0025 142.625 30.7964 141.775 30.8C139.538 30.8 137.275 32.05 137.275 34.3125C137.297 34.7949 137.416 35.268 137.624 35.7038C137.832 36.1396 138.125 36.5293 138.487 36.8498C138.848 37.1703 139.27 37.415 139.727 37.5697C140.185 37.7243 140.668 37.7856 141.15 37.75C141.739 37.7923 142.328 37.6753 142.856 37.4114C143.384 37.1475 143.831 36.7463 144.15 36.25H144.225V37.5H146.475V31.4875C146.475 28.75 144.4 27.1625 141.738 27.1625L141.675 27.125ZM141.388 35.6875C140.625 35.6875 139.563 35.3 139.563 34.3625C139.563 33.1125 140.888 32.7 142.063 32.7C142.805 32.6817 143.539 32.863 144.188 33.225C144.109 33.9018 143.789 34.5275 143.286 34.9869C142.783 35.4463 142.131 35.7084 141.45 35.725L141.388 35.6875ZM154.675 27.5L152 34.275H151.925L149.15 27.5H146.65L150.813 36.975L148.438 42.2375H150.875L157.275 27.5H154.675ZM133.663 37.5H136V21.875H133.663V37.5Z" fill="white"/>
<path d="M59.197 12.8781C59.2182 13.3366 59.1461 13.7946 58.9849 14.2244C58.8238 14.6541 58.577 15.0466 58.2595 15.3781C57.905 15.7463 57.4769 16.0357 57.0031 16.2274C56.5292 16.4191 56.0203 16.5088 55.5095 16.4906C54.7345 16.4845 53.9785 16.2499 53.3362 15.816C52.694 15.3822 52.1941 14.7685 51.8991 14.0517C51.6041 13.335 51.5273 12.5472 51.6781 11.787C51.8289 11.0267 52.2008 10.3279 52.747 9.77809C53.106 9.41157 53.5364 9.12262 54.0116 8.92911C54.4867 8.7356 54.9966 8.64166 55.5095 8.65309C56.0379 8.65133 56.5612 8.75768 57.047 8.96559C57.4993 9.14803 57.902 9.43504 58.222 9.80309L57.5595 10.4656C57.31 10.1688 56.9949 9.93416 56.6391 9.78014C56.2834 9.62611 55.8966 9.55694 55.5095 9.57809C55.1191 9.57617 54.7322 9.65312 54.3723 9.80433C54.0123 9.95553 53.6865 10.1779 53.4145 10.458C53.1426 10.7382 52.93 11.0703 52.7895 11.4346C52.649 11.7989 52.5835 12.1879 52.597 12.5781C52.5888 13.1608 52.7534 13.7328 53.0699 14.2221C53.3865 14.7113 53.8408 15.0958 54.3757 15.3272C54.9105 15.5585 55.5019 15.6262 56.0752 15.5218C56.6485 15.4174 57.178 15.1456 57.597 14.7406C57.9816 14.3238 58.2035 13.7825 58.222 13.2156H55.5095V12.3156H59.147C59.1803 12.5012 59.1971 12.6895 59.197 12.8781ZM64.922 9.75309H61.547V12.1281H64.622V13.0281H61.547V15.4031H64.922V16.3281H60.547V8.82809H64.922V9.75309ZM69.022 16.3281H68.0595V9.75309H65.9595V8.82809H71.172V9.75309H69.022V16.3281ZM74.847 16.3281V8.82809H75.8095V16.3281H74.847ZM80.0845 16.3281H79.122V9.75309H77.022V8.82809H82.172V9.75309H80.0845V16.3281ZM91.9345 15.3531C91.2037 16.0798 90.2151 16.4877 89.1845 16.4877C88.1539 16.4877 87.1653 16.0798 86.4345 15.3531C85.7242 14.6012 85.3285 13.6061 85.3285 12.5718C85.3285 11.5375 85.7242 10.5424 86.4345 9.79059C86.7947 9.42777 87.2231 9.13981 87.6951 8.9433C88.1671 8.7468 88.6733 8.64563 89.1845 8.64563C89.6958 8.64563 90.2019 8.7468 90.6739 8.9433C91.1459 9.13981 91.5743 9.42777 91.9345 9.79059C92.6476 10.541 93.0452 11.5366 93.0452 12.5718C93.0452 13.607 92.6476 14.6027 91.9345 15.3531ZM87.147 14.7281C87.6882 15.267 88.4208 15.5696 89.1845 15.5696C89.9482 15.5696 90.6808 15.267 91.222 14.7281C91.756 14.1394 92.0519 13.373 92.0519 12.5781C92.0519 11.7832 91.756 11.0168 91.222 10.4281C90.6808 9.88919 89.9482 9.58662 89.1845 9.58662C88.4208 9.58662 87.6882 9.88919 87.147 10.4281C86.6129 11.0168 86.3171 11.7832 86.3171 12.5781C86.3171 13.373 86.6129 14.1394 87.147 14.7281ZM94.397 16.3281V8.82809H95.572L99.222 14.6656V8.82809H100.185V16.3281H99.1845L95.372 10.2156V16.3281H94.397Z" fill="white"/>
<path fill-rule="evenodd" clip-rule="evenodd" d="M89.1845 8.77063C88.6897 8.77063 88.1999 8.86853 87.7431 9.0587C87.2869 9.24867 86.8726 9.52696 86.5243 9.87756C85.8366 10.6061 85.4535 11.57 85.4535 12.5718C85.4535 13.5736 85.8365 14.5374 86.524 15.2658C87.2312 15.9684 88.1876 16.3627 89.1845 16.3627C90.1815 16.3627 91.1379 15.9683 91.8451 15.2657C92.5354 14.5387 92.9202 13.5744 92.9202 12.5718C92.9202 11.5692 92.5353 10.6048 91.8449 9.87772C91.4965 9.52704 91.0822 9.2487 90.6259 9.0587C90.1691 8.86853 89.6793 8.77063 89.1845 8.77063ZM87.647 8.82791C88.1342 8.62506 88.6568 8.52063 89.1845 8.52063C89.7122 8.52063 90.2348 8.62506 90.722 8.82791C91.2092 9.03075 91.6514 9.328 92.0232 9.70252L92.0251 9.70446C92.7603 10.4781 93.1702 11.5046 93.1702 12.5718C93.1702 13.6391 92.7603 14.6656 92.0251 15.4392L92.0227 15.4418C91.2685 16.1917 90.2481 16.6127 89.1845 16.6127C88.1209 16.6127 87.1005 16.1917 86.3464 15.4417L86.3436 15.439C85.6114 14.6639 85.2035 13.6381 85.2035 12.5718C85.2035 11.5056 85.6114 10.4798 86.3436 9.70475L86.3458 9.7025C86.7176 9.32797 87.1598 9.03075 87.647 8.82791ZM55.5067 8.77806C55.0109 8.76701 54.5181 8.85782 54.0587 9.04488C53.5994 9.23193 53.1833 9.51126 52.8363 9.86556L52.8357 9.86619C52.3068 10.3986 51.9467 11.0752 51.8007 11.8113C51.6547 12.5474 51.7291 13.3102 52.0147 14.0042C52.3003 14.6981 52.7844 15.2924 53.4062 15.7124C54.0281 16.1325 54.7601 16.3597 55.5105 16.3656L55.5139 16.3656C56.0072 16.3832 56.4986 16.2966 56.9562 16.1115C57.4137 15.9265 57.827 15.6471 58.1693 15.2915C58.475 14.9723 58.7127 14.5943 58.8679 14.1805C59.0231 13.7666 59.0926 13.3254 59.0721 12.8839L59.197 12.8781L59.072 12.878C59.0721 12.7316 59.0616 12.5854 59.0406 12.4406H55.6345V13.0906H58.3511L58.3469 13.2197C58.3274 13.8165 58.0939 14.3865 57.6889 14.8254L57.684 14.8306C57.2473 15.2528 56.6952 15.536 56.0976 15.6448C55.5 15.7536 54.8836 15.683 54.326 15.4419C53.7685 15.2008 53.2949 14.7999 52.965 14.29C52.6356 13.7808 52.464 13.1857 52.472 12.5794C52.4584 12.1733 52.5267 11.7687 52.6729 11.3897C52.8194 11.0097 53.0412 10.6632 53.3249 10.3709C53.6086 10.0787 53.9483 9.8468 54.3238 9.68908C54.6982 9.53184 55.1004 9.45158 55.5064 9.45308C55.9116 9.43151 56.3164 9.50419 56.6888 9.66542C57.0207 9.80911 57.3189 10.0196 57.565 10.2833L58.0496 9.79876C57.7561 9.48691 57.3982 9.24204 57.0002 9.08152L56.9978 9.08053C56.5277 8.87933 56.0213 8.77639 55.5099 8.77809L55.5067 8.77806ZM59.322 12.8752C59.3436 13.3496 59.2688 13.8235 59.102 14.2682C58.9349 14.7139 58.679 15.1209 58.3498 15.4646C57.9831 15.8454 57.5401 16.145 57.0499 16.3433C56.5604 16.5414 56.0346 16.6341 55.5068 16.6156C54.7078 16.609 53.9284 16.3669 53.2663 15.9196C52.6036 15.472 52.0878 14.8388 51.7835 14.0993C51.4792 13.3598 51.3999 12.547 51.5555 11.7626C51.7111 10.9784 52.0946 10.2575 52.658 9.6903C53.0289 9.31171 53.4736 9.01324 53.9644 8.81334C54.4549 8.61359 54.9812 8.5165 55.5107 8.52809C56.0552 8.52649 56.5943 8.63608 57.095 8.85016C57.5651 9.04001 57.9836 9.33845 58.3163 9.72107L58.3928 9.80905L57.5515 10.6503L57.4638 10.546C57.2268 10.2641 56.9275 10.0412 56.5895 9.89485C56.2515 9.74852 55.8841 9.68281 55.5163 9.7029L55.5089 9.70331C55.1353 9.70148 54.7651 9.77489 54.4207 9.91957C54.0762 10.0643 53.7645 10.277 53.5042 10.5451C53.244 10.8132 53.0405 11.131 52.9061 11.4796C52.7717 11.8282 52.709 12.2004 52.7219 12.5738L52.7221 12.5798C52.7143 13.1378 52.8717 13.6856 53.1749 14.1541C53.478 14.6227 53.9131 14.9909 54.4253 15.2124C54.9375 15.434 55.5038 15.4988 56.0528 15.3988C56.6006 15.2991 57.1067 15.0397 57.5075 14.6532C57.8411 14.2906 58.0448 13.829 58.0891 13.3406H55.3845V12.1906H59.2516L59.27 12.2935C59.3045 12.4855 59.3219 12.6802 59.322 12.8752ZM60.422 8.70309H65.047V9.87809H61.672V12.0031H64.747V13.1531H61.672V15.2781H65.047V16.4531H60.422V8.70309ZM60.672 8.95309V16.2031H64.797V15.5281H61.422V12.9031H64.497V12.2531H61.422V9.62809H64.797V8.95309H60.672ZM65.8345 8.70309H71.297V9.87809H69.147V16.4531H67.9345V9.87809H65.8345V8.70309ZM66.0845 8.95309V9.62809H68.1845V16.2031H68.897V9.62809H71.047V8.95309H66.0845ZM74.722 8.70309H75.9345V16.4531H74.722V8.70309ZM74.972 8.95309V16.2031H75.6845V8.95309H74.972ZM76.897 8.70309H82.297V9.87809H80.2095V16.4531H78.997V9.87809H76.897V8.70309ZM77.147 8.95309V9.62809H79.247V16.2031H79.9595V9.62809H82.047V8.95309H77.147ZM94.272 8.70309H95.6413L99.097 14.2299V8.70309H100.31V16.4531H99.1152L95.497 10.6522V16.4531H94.272V8.70309ZM94.522 8.95309V16.2031H95.247V9.77898L99.2539 16.2031H100.06V8.95309H99.347V15.1013L95.5027 8.95309H94.522ZM87.0588 10.3395C87.6234 9.77728 88.3877 9.46162 89.1845 9.46162C89.9813 9.46162 90.7456 9.77729 91.3102 10.3395L91.3147 10.344C91.8696 10.9557 92.1769 11.7522 92.1769 12.5781C92.1769 13.404 91.8695 14.2004 91.3146 14.8121L91.3103 14.8168C90.7457 15.379 89.9813 15.6946 89.1845 15.6946C88.3877 15.6946 87.6234 15.3789 87.0588 14.8167L87.147 14.7281L87.0544 14.8121C86.4995 14.2004 86.1921 13.404 86.1921 12.5781C86.1921 11.7522 86.4995 10.9558 87.0544 10.3441L87.0588 10.3395ZM87.2375 14.6418C87.755 15.1559 88.4549 15.4446 89.1845 15.4446C89.9141 15.4446 90.614 15.1559 91.1315 14.6418C91.6434 14.0763 91.9269 13.3409 91.9269 12.5781C91.9269 11.8153 91.6434 11.0798 91.1315 10.5144C90.614 10.0002 89.9141 9.71162 89.1845 9.71162C88.4549 9.71162 87.755 10.0002 87.2375 10.5144C86.7256 11.0798 86.4421 11.8153 86.4421 12.5781C86.4421 13.3409 86.7256 14.0763 87.2375 14.6418Z" fill="white"/>
<path d="M13.0499 9.4249C12.6425 9.91379 12.4368 10.5396 12.4749 11.1749V38.8249C12.4368 39.4602 12.6425 40.086 13.0499 40.5749L13.1374 40.6624L28.6249 25.1874V24.8249L13.1374 9.3374L13.0499 9.4249Z" fill="url(#paint0_linear)"/>
<path d="M33.7499 30.3499L28.6249 25.1874V24.8249L33.7499 19.6499L33.8624 19.7124L39.9999 23.1999C41.7499 24.1874 41.7499 25.8124 39.9999 26.8124L33.8874 30.2874L33.7499 30.3499Z" fill="url(#paint1_linear)"/>
<path d="M33.8999 30.275L28.6249 25L13.0499 40.575C13.4066 40.8886 13.8617 41.0677 14.3364 41.0814C14.8111 41.0951 15.2757 40.9425 15.6499 40.65L33.9124 30.275" fill="url(#paint2_linear)"/>
<path d="M33.8999 19.7249L15.6374 9.34994C15.2632 9.05746 14.7986 8.90488 14.3239 8.91857C13.8492 8.93227 13.3941 9.11137 13.0374 9.42494L28.6249 24.9999L33.8999 19.7249Z" fill="url(#paint3_linear)"/>
<path opacity="0.2" d="M33.7499 30.1625L15.6374 40.475C15.2765 40.7448 14.838 40.8906 14.3874 40.8906C13.9368 40.8906 13.4983 40.7448 13.1374 40.475L13.0499 40.5625L13.1374 40.65C13.4975 40.9217 13.9363 41.0687 14.3874 41.0687C14.8385 41.0687 15.2774 40.9217 15.6374 40.65L33.8999 30.275L33.7499 30.1625Z" fill="black"/>
<path opacity="0.12" d="M13.0499 40.4C12.6425 39.9111 12.4368 39.2853 12.4749 38.65V38.8375C12.4368 39.4728 12.6425 40.0986 13.0499 40.5875L13.1374 40.5L13.0499 40.4ZM39.9999 26.625L33.7499 30.1625L33.8624 30.275L39.9999 26.8C40.3481 26.6364 40.6471 26.3839 40.8665 26.0678C41.086 25.7518 41.2182 25.3835 41.2499 25C41.1796 25.3484 41.0303 25.676 40.8137 25.9577C40.597 26.2394 40.3186 26.4677 39.9999 26.625Z" fill="black"/>
<path opacity="0.25" d="M15.6374 9.52443L39.9999 23.3744C40.3186 23.5317 40.597 23.76 40.8137 24.0417C41.0303 24.3234 41.1796 24.6511 41.2499 24.9994C41.2182 24.616 41.086 24.2476 40.8665 23.9316C40.6471 23.6156 40.3481 23.363 39.9999 23.1994L15.6374 9.34943C13.8874 8.36193 12.4624 9.18693 12.4624 11.1869V11.3744C12.4999 9.36193 13.8999 8.53693 15.6374 9.52443V9.52443Z" fill="white"/>
<defs>
<linearGradient id="paint0_linear" x1="27.2499" y1="10.8874" x2="6.27487" y2="31.8624" gradientUnits="userSpaceOnUse">
<stop stop-color="#00A0FF"/>
<stop offset="0.01" stop-color="#00A1FF"/>
<stop offset="0.26" stop-color="#00BEFF"/>
<stop offset="0.51" stop-color="#00D2FF"/>
<stop offset="0.76" stop-color="#00DFFF"/>
<stop offset="1" stop-color="#00E3FF"/>
</linearGradient>
<linearGradient id="paint1_linear" x1="42.2874" y1="24.9999" x2="12.0499" y2="24.9999" gradientUnits="userSpaceOnUse">
<stop stop-color="#FFE000"/>
<stop offset="0.41" stop-color="#FFBD00"/>
<stop offset="0.78" stop-color="#FFA500"/>
<stop offset="1" stop-color="#FF9C00"/>
</linearGradient>
<linearGradient id="paint2_linear" x1="31.0374" y1="27.875" x2="2.58743" y2="56.3125" gradientUnits="userSpaceOnUse">
<stop stop-color="#FF3A44"/>
<stop offset="1" stop-color="#C31162"/>
</linearGradient>
<linearGradient id="paint3_linear" x1="9.12492" y1="0.22494" x2="21.8249" y2="12.9249" gradientUnits="userSpaceOnUse">
<stop stop-color="#32A071"/>
<stop offset="0.07" stop-color="#2DA771"/>
<stop offset="0.48" stop-color="#15CF74"/>
<stop offset="0.8" stop-color="#06E775"/>
<stop offset="1" stop-color="#00F076"/>
</linearGradient>
</defs>
</svg>
