<svg width="2433" height="1682" viewBox="0 0 2433 1682" fill="none" xmlns="http://www.w3.org/2000/svg">
<rect width="2433" height="1682" fill="#F5F5F5"/>
<path opacity="0.9" d="M171.539 1183.75V1142.91C205.12 1164.47 276.64 1210.03 294.066 1219.83C365.949 1268.84 536.172 1352.8 612.638 1389.33C689.331 1420.19 869.265 1494.43 972.733 1525.47C799.833 1520.02 599.704 1441.74 558.862 1424.72C411.284 1368.09 239.156 1240.48 171.539 1183.75Z" fill="#B2ACFF"/>
<path d="M396.173 1307.64C351.518 1277.15 283.175 1219.6 254.585 1194.64C377.794 1258.18 659.335 1399.4 799.833 1456.04C975.456 1526.83 1072.8 1539.76 1152.44 1560.87C1216.15 1577.75 1381.39 1585.6 1456.04 1587.41C1458.08 1588.32 1446.51 1592.04 1383.88 1599.67C1305.6 1609.2 1210.98 1616 1095.94 1601.71C980.902 1587.41 857.693 1548.61 778.05 1517.98C698.407 1487.35 599.705 1435.61 543.206 1404.3C486.707 1372.99 451.991 1345.76 396.173 1307.64Z" fill="#D8D8D8" fill-opacity="0.5"/>
<path d="M182.43 1146.99V534.356L2142.87 535.718V1429.49C2003.33 1498.24 1944.79 1509.13 1850.17 1535C1628.26 1590.14 1446.51 1590.14 1323.98 1584.69C1067.95 1579.97 748.563 1446.55 682.005 1418.74L680.028 1417.92C483.303 1335.77 271.376 1206.67 182.43 1146.99Z" fill="url(#paint0_linear_0_1)"/>
<g opacity="0.3" clip-path="url(#clip0_0_1)">
<g style="mix-blend-mode:screen">
<path style="mix-blend-mode:screen" opacity="0.2" d="M68.4503 1184.59C189.174 778.355 422.68 813.033 474.785 991.456C582.118 1358.98 1003.24 1356.35 1278.18 1101.47C1901.17 523.888 2020.6 1777.72 2228.79 1420.72" stroke="url(#paint1_linear_0_1)" stroke-width="0.25" stroke-miterlimit="10"/>
<path style="mix-blend-mode:screen" opacity="0.23" d="M69.7429 1174.24C189.766 772.448 423.485 806.743 478.396 982.508C536.545 1168.77 644.719 1255.97 795.161 1275.61C947.47 1294.91 1125.49 1222.87 1268.05 1097.33C1407.52 974.495 1520.93 938.559 1618.28 959.18C1957.66 1030.08 2072.31 1674.42 2228.98 1405.76" stroke="url(#paint2_linear_0_1)" stroke-width="0.29" stroke-miterlimit="10"/>
<path style="mix-blend-mode:screen" opacity="0.25" d="M71.0356 1163.89C190.363 766.52 424.468 800.447 481.919 973.564C545.048 1163.76 630.708 1247.45 780.103 1271.67C930.722 1296.14 1111.18 1215.87 1257.91 1093.13C1398.18 975.844 1511.43 942.16 1610.94 968.317C1956.38 1059.11 2077.73 1650.47 2229.18 1390.77" stroke="url(#paint3_linear_0_1)" stroke-width="0.33" stroke-miterlimit="10"/>
<path style="mix-blend-mode:screen" opacity="0.28" d="M72.3409 1153.53C190.97 760.595 425.609 794.129 485.488 964.607C553.692 1158.76 616.763 1238.62 765.088 1267.73C914.052 1297 1096.74 1208.87 1247.78 1088.96C1388.64 977.14 1501.94 945.633 1603.6 977.462C1955.2 1087.57 2083.15 1626.54 2229.37 1375.79" stroke="url(#paint4_linear_0_1)" stroke-width="0.37" stroke-miterlimit="10"/>
<path style="mix-blend-mode:screen" opacity="0.3" d="M73.6335 1143.18C191.567 754.667 426.909 787.79 489.057 955.65C562.469 1153.81 602.802 1229.76 750.084 1263.79C897.366 1297.83 1082.17 1201.88 1237.65 1084.74C1378.98 978.313 1492.47 949.019 1596.26 986.555C1954.01 1115.93 2088.58 1602.55 2229.58 1360.76" stroke="url(#paint5_linear_0_1)" stroke-width="0.41" stroke-miterlimit="10"/>
<path style="mix-blend-mode:screen" opacity="0.33" d="M74.9262 1132.83C192.166 748.728 428.35 781.403 492.643 946.664C571.267 1148.8 588.835 1220.87 735.131 1259.82C880.785 1298.64 1067.53 1194.85 1227.57 1080.59C1369.22 979.463 1483.03 952.469 1588.96 995.732C1952.88 1144.28 2094.05 1578.65 2229.82 1345.82" stroke="url(#paint6_linear_0_1)" stroke-width="0.45" stroke-miterlimit="10"/>
<path style="mix-blend-mode:screen" opacity="0.35" d="M76.2188 1122.48C192.769 742.824 429.907 775.042 496.201 937.759C580.189 1143.89 574.85 1211.97 720.062 1255.88C863.998 1299.43 1052.66 1187.83 1217.38 1076.42C1359.23 980.533 1473.47 955.916 1581.59 1004.92C1951.62 1172.65 2099.43 1554.76 2229.99 1330.87" stroke="url(#paint7_linear_0_1)" stroke-width="0.49" stroke-miterlimit="10"/>
<path style="mix-blend-mode:screen" opacity="0.38" d="M77.5113 1112.13C193.371 736.875 431.596 768.631 499.77 928.802C589.206 1138.95 560.879 1203.06 705.04 1251.97C847.284 1300.24 1037.7 1180.79 1207.24 1072.29C1349.13 981.49 1463.99 959.323 1574.21 1014.05C1950.45 1200.91 2104.83 1530.82 2230.18 1315.89" stroke="url(#paint8_linear_0_1)" stroke-width="0.53" stroke-miterlimit="10"/>
<path style="mix-blend-mode:screen" opacity="0.41" d="M78.8145 1101.78C193.968 730.947 433.388 762.198 503.335 919.867C598.327 1133.98 546.891 1194.12 690.024 1248.04C830.571 1300.99 1022.63 1173.66 1197.1 1068.11C1338.94 982.309 1454.51 962.709 1566.86 1023.21C1949.28 1229.12 2110.24 1506.89 2230.35 1300.92" stroke="url(#paint9_linear_0_1)" stroke-width="0.57" stroke-miterlimit="10"/>
<path style="mix-blend-mode:screen" opacity="0.43" d="M80.1071 1091.43C194.575 725.022 435.281 755.754 506.904 910.91C607.542 1128.98 532.904 1185.12 675.022 1244.09C813.865 1301.72 1007.46 1166.47 1186.94 1063.94C1328.61 982.986 1445.01 966.078 1559.48 1032.35C1948.17 1257.31 2115.63 1482.95 2230.51 1285.93" stroke="url(#paint10_linear_0_1)" stroke-width="0.61" stroke-miterlimit="10"/>
<path style="mix-blend-mode:screen" opacity="0.46" d="M81.3997 1081.08C195.172 719.094 437.275 749.199 510.481 901.966C616.859 1123.97 518.917 1176.12 660.007 1240.15C797.163 1302.42 992.173 1159.19 1176.83 1059.77C1318.21 983.662 1435.58 969.465 1552.2 1041.54C1947.05 1285.5 2121.11 1459.07 2230.76 1271.06" stroke="url(#paint11_linear_0_1)" stroke-width="0.65" stroke-miterlimit="10"/>
<path style="mix-blend-mode:screen" opacity="0.48" d="M82.6945 1070.71C195.769 713.166 439.353 742.663 514.05 893.009C626.261 1118.97 504.937 1167.09 644.99 1236.22C780.468 1303.09 976.775 1151.81 1166.7 1055.62C1307.7 984.182 1426.05 972.83 1544.83 1050.67C1945.9 1313.59 2126.5 1435.11 2230.93 1256" stroke="url(#paint12_linear_0_1)" stroke-width="0.69" stroke-miterlimit="10"/>
<path style="mix-blend-mode:screen" opacity="0.51" d="M83.9872 1060.36C196.365 707.293 441.516 736.089 517.617 884.062C635.786 1113.86 490.964 1158.03 629.976 1232.28C763.777 1303.74 961.302 1144.28 1156.56 1051.43C1297.14 984.536 1416.65 976.177 1537.48 1059.8C1944.81 1341.69 2131.89 1411.17 2231.13 1241.01" stroke="url(#paint13_linear_0_1)" stroke-width="0.73" stroke-miterlimit="10"/>
<path style="mix-blend-mode:screen" opacity="0.54" d="M85.2903 1050.01C196.973 701.312 443.74 729.484 521.184 875.116C645.408 1108.7 477.003 1148.97 614.961 1228.34C747.091 1304.37 945.72 1136.69 1146.43 1047.27C1286.45 984.854 1407.2 979.536 1530.14 1068.95C1943.74 1369.78 2137.33 1387.24 2231.33 1226.04" stroke="url(#paint14_linear_0_1)" stroke-width="0.77" stroke-miterlimit="10"/>
<path style="mix-blend-mode:screen" opacity="0.56" d="M86.5829 1039.66C197.57 695.384 446.036 722.85 524.751 866.169C655.122 1103.53 463.057 1139.88 599.945 1224.41C730.417 1304.98 930.052 1128.99 1136.29 1043.11C1275.72 985.04 1397.75 982.895 1522.79 1078.12C1942.68 1397.86 2142.71 1363.34 2231.52 1211.08" stroke="url(#paint15_linear_0_1)" stroke-width="0.81" stroke-miterlimit="10"/>
<path style="mix-blend-mode:screen" opacity="0.59" d="M87.8755 1029.31C198.177 689.459 448.396 716.175 528.33 857.215C664.959 1098.24 449.121 1130.75 584.943 1220.47C713.763 1305.56 914.322 1121.06 1126.16 1038.93C1264.95 985.097 1388.31 986.223 1515.44 1087.25C1941.64 1425.91 2148.16 1339.37 2231.72 1196.09" stroke="url(#paint16_linear_0_1)" stroke-width="0.85" stroke-miterlimit="10"/>
<path style="mix-blend-mode:screen" opacity="0.61" d="M89.1682 1018.96C198.827 683.542 450.807 709.467 531.897 848.268C674.867 1092.98 435.197 1121.61 569.928 1216.52C697.127 1306.11 898.527 1113.02 1116.02 1034.76C1254.13 985.057 1378.87 989.563 1508.1 1096.4C1940.61 1453.97 2153.58 1315.45 2231.92 1181.12" stroke="url(#paint17_linear_0_1)" stroke-width="0.9" stroke-miterlimit="10"/>
<path style="mix-blend-mode:screen" opacity="0.64" d="M90.4608 1008.61C199.371 677.603 453.267 702.736 535.464 839.322C684.886 1087.61 421.287 1112.46 554.903 1212.64C680.474 1306.74 882.652 1104.84 1105.88 1030.64C1243.26 984.961 1369.43 992.956 1500.74 1105.6C1939.6 1482.04 2158.99 1291.56 2232.11 1166.19" stroke="url(#paint18_linear_0_1)" stroke-width="0.94" stroke-miterlimit="10"/>
<path style="mix-blend-mode:screen" opacity="0.66" d="M91.7534 998.256C199.978 671.678 455.769 695.96 539.033 830.365C695.02 1082.16 407.402 1103.29 539.899 1208.64C663.872 1307.23 866.763 1096.37 1095.75 1026.41C1232.39 984.659 1360 996.234 1493.4 1114.7C1938.61 1510.03 2164.45 1267.59 2232.31 1151.16" stroke="url(#paint19_linear_0_1)" stroke-width="0.98" stroke-miterlimit="10"/>
<path style="mix-blend-mode:screen" opacity="0.69" d="M93.0588 987.896C200.575 665.75 458.323 689.15 542.611 821.421C705.246 1076.65 393.531 1094.11 524.883 1204.71C647.273 1307.76 850.836 1087.76 1085.65 1022.24C1221.54 984.325 1350.61 999.573 1486.1 1123.85C1937.66 1538.06 2169.86 1243.66 2232.54 1136.2" stroke="url(#paint20_linear_0_1)" stroke-width="1.02" stroke-miterlimit="10"/>
<path style="mix-blend-mode:screen" opacity="0.72" d="M94.3514 977.545C201.172 659.822 460.902 682.324 546.177 812.474C715.599 1071.05 379.675 1084.91 509.878 1200.78C630.698 1308.28 834.875 1078.95 1075.48 1018.05C1210.61 983.866 1341.15 1002.94 1478.69 1132.97C1936.63 1566.06 2175.23 1219.7 2232.68 1121.2" stroke="url(#paint21_linear_0_1)" stroke-width="1.06" stroke-miterlimit="10"/>
<path style="mix-blend-mode:screen" opacity="0.74" d="M95.6439 967.193C201.811 653.903 463.515 675.439 549.746 803.518C726.006 1065.36 365.84 1075.72 494.864 1196.84C614.125 1308.79 818.915 1069.93 1065.34 1013.89C1199.72 983.349 1331.74 1006.23 1471.37 1142.15C1935.7 1594.09 2180.67 1195.78 2232.9 1106.24" stroke="url(#paint22_linear_0_1)" stroke-width="1.1" stroke-miterlimit="10"/>
<path style="mix-blend-mode:screen" opacity="0.77" d="M96.9455 956.8C202.376 647.968 466.167 668.529 553.313 794.571C736.54 1059.58 352.02 1066.5 479.881 1192.9C597.573 1309.3 802.946 1060.69 1055.18 1009.72C1188.81 982.727 1322.3 1009.56 1463.99 1151.3C1934.72 1622.12 2186.06 1171.87 2233.06 1091.25" stroke="url(#paint23_linear_0_1)" stroke-width="1.14" stroke-miterlimit="10"/>
<path style="mix-blend-mode:screen" opacity="0.79" d="M98.2292 946.491C202.976 642.03 468.835 661.59 556.88 785.625C747.183 1053.71 338.221 1057.29 464.803 1188.95C581.046 1309.8 786.98 1051.23 1045.07 1005.55C1177.97 982.08 1312.92 1012.88 1456.68 1160.44C1933.81 1650.13 2191.51 1147.93 2233.29 1076.29" stroke="url(#paint24_linear_0_1)" stroke-width="1.18" stroke-miterlimit="10"/>
<path style="mix-blend-mode:screen" opacity="0.82" d="M99.5323 936.141C203.583 636.104 471.541 654.582 560.451 776.712C757.905 1047.77 324.426 1048.12 449.805 1185.09C564.514 1310.37 771.045 1041.62 1034.93 1001.44C1167.14 981.312 1303.78 1016 1449.32 1169.64C1933.83 1677.24 2196.93 1124 2233.52 1061.32" stroke="url(#paint25_linear_0_1)" stroke-width="1.22" stroke-miterlimit="10"/>
<path style="mix-blend-mode:screen" opacity="0.85" d="M100.832 925.758C204.162 630.107 474.257 647.576 564.033 767.692C768.759 1041.62 310.679 1038.82 434.823 1181.04C548.021 1310.76 755.164 1031.61 1024.8 997.183C1156.36 980.389 1294.36 1019.28 1441.99 1178.71C1932.81 1705.34 2202.35 1100.04 2233.69 1046.31" stroke="url(#paint26_linear_0_1)" stroke-width="1.26" stroke-miterlimit="10"/>
<path style="mix-blend-mode:screen" opacity="0.87" d="M102.118 915.438C204.798 624.253 476.973 640.569 567.583 758.775C779.682 1035.46 296.943 1029.62 419.789 1177.14C531.532 1311.29 739.308 1021.52 1014.66 993.078C1145.6 979.548 1284.9 1022.71 1434.63 1187.91C1931.76 1733.54 2207.76 1076.17 2233.91 1031.4" stroke="url(#paint27_linear_0_1)" stroke-width="1.3" stroke-miterlimit="10"/>
<path style="mix-blend-mode:screen" opacity="0.9" d="M103.412 905.077C205.393 618.281 479.725 633.494 571.16 749.831C790.741 1029.13 283.182 1020.44 404.785 1173.21C515.062 1311.78 723.532 1011.11 1004.53 988.875C1134.9 978.543 1275.47 1026.04 1427.3 1197.04C1930.72 1761.65 2213.18 1052.2 2234.07 1016.41" stroke="url(#paint28_linear_0_1)" stroke-width="1.34" stroke-miterlimit="10"/>
<path style="mix-blend-mode:screen" opacity="0.92" d="M104.707 894.715C205.983 612.385 482.529 626.386 574.774 740.872C801.909 1022.75 269.519 1011.17 389.815 1169.26C498.642 1312.24 707.809 1000.56 994.397 984.706C1124.24 977.527 1266.03 1029.41 1419.96 1206.19C1929.69 1789.79 2218.61 1028.24 2234.27 1001.41" stroke="url(#paint29_linear_0_1)" stroke-width="1.38" stroke-miterlimit="10"/>
<path style="mix-blend-mode:screen" opacity="0.95" d="M106.008 884.376C206.582 606.446 485.24 619.247 578.307 731.93C813.086 1016.22 255.767 1001.94 374.798 1165.33C482.192 1312.79 692.212 989.774 984.299 980.544C1113.69 976.465 1256.63 1032.77 1412.66 1215.34C1928.71 1817.94 2224.07 1004.36 2234.51 986.446" stroke="url(#paint30_linear_0_1)" stroke-width="1.42" stroke-miterlimit="10"/>
<path style="mix-blend-mode:screen" opacity="0.97" d="M107.301 874.025C207.185 600.542 488.01 612.088 581.873 722.983C824.428 1009.53 242.254 992.575 359.741 1161.38C465.891 1313.16 676.622 978.746 974.127 976.367C1103.11 975.333 1247.15 1036.14 1405.26 1224.49C1927.6 1846.06 2229.44 980.415 2234.66 971.456" stroke="url(#paint31_linear_0_1)" stroke-width="1.46" stroke-miterlimit="10"/>
<path style="mix-blend-mode:screen" d="M108.593 863.673C207.782 594.614 490.79 604.886 585.442 714.027C835.84 1002.78 228.403 983.508 344.733 1157.47C493.712 1380.2 860.609 582.585 1397.92 1233.63C1926.58 1874.2 2234.85 956.488 2234.85 956.488" stroke="url(#paint32_linear_0_1)" stroke-width="1.5" stroke-miterlimit="10"/>
</g>
<g style="mix-blend-mode:color-dodge">
<g style="mix-blend-mode:color-dodge" opacity="0.2">
<path style="mix-blend-mode:color-dodge" d="M68.5743 1184.63L68.3218 1184.58C84.881 1128.85 104.308 1079.1 126.049 1036.68C146.232 997.352 168.572 963.981 192.476 937.49C214.664 912.877 238.197 894.152 262.418 881.826C285.094 870.315 308.096 864.466 330.836 864.528C363.077 864.615 393.645 876.642 419.252 899.321C444.673 921.839 463.942 953.678 474.967 991.429C488.563 1038 506.545 1077.1 527.306 1109.94C505.149 1075.08 487.618 1035.6 474.711 991.495C452.277 914.693 395.803 864.958 330.832 864.802C283.595 864.679 235.816 889.879 192.714 937.716C142.494 993.308 100.747 1076.4 68.5743 1184.63ZM762.437 1272.36C754.443 1270.66 746.537 1268.74 738.721 1266.58C708.78 1258.37 679.983 1246.45 653.004 1231.09C640.318 1223.82 628.096 1215.78 616.407 1207C657.57 1237.7 700.68 1255.8 738.798 1266.33C907.905 1313.03 1119.63 1248.28 1278.1 1101.32C1311.42 1070.45 1344.39 1043.85 1376.1 1022.3C1395.5 1009.03 1415.73 997.004 1436.65 986.295C1386.15 1011.96 1333.55 1050.29 1278.29 1101.53C1199.81 1174.27 1107.59 1228.15 1011.57 1257.33C925.101 1283.66 839.53 1288.75 762.426 1272.41L762.437 1272.36ZM2140.98 1484.85C2120.08 1480.42 2097.91 1462.99 2072.22 1431.02C2044.85 1396.99 2015.8 1349.26 1985.03 1298.73C1899.72 1158.69 1794.29 985.52 1639.18 952.644C1633.34 951.407 1627.46 950.37 1621.49 949.544C1581.16 943.929 1539.74 947.83 1496.85 961.42C1513.29 956.142 1530.14 952.22 1547.23 949.692C1571.85 946.059 1596.86 945.919 1621.53 949.277C1786.56 972.167 1896.72 1153.19 1985.26 1298.59C2016.03 1349.07 2045.08 1396.84 2072.42 1430.86C2102.69 1468.51 2128.03 1485.95 2152.16 1485.71C2178.25 1485.47 2203.29 1464.19 2228.68 1420.62L2228.91 1420.76C2203.47 1464.38 2178.37 1485.71 2152.18 1485.96C2148.42 1485.99 2144.66 1485.62 2140.98 1484.85V1484.85Z" fill="url(#paint33_linear_0_1)"/>
</g>
<g style="mix-blend-mode:color-dodge" opacity="0.23">
<path style="mix-blend-mode:color-dodge" d="M69.8985 1174.29L69.5934 1174.22C86.0043 1119.3 105.285 1070.18 126.85 1028.33C146.88 989.524 169.103 956.545 192.897 930.316C235.903 882.986 283.638 857.788 331.103 857.508C363.692 857.306 394.763 869.034 420.954 891.396C446.899 913.564 466.79 945.063 478.464 982.446C533.582 1158.95 637.159 1254.82 795.109 1275.45C943.22 1294.21 1119.92 1227.56 1267.94 1097.19C1302.14 1067.08 1335.75 1041.4 1367.84 1020.87C1398.94 1000.97 1429.59 985.303 1458.92 974.246C1487.24 963.613 1515.22 956.995 1542.11 954.52C1567.6 952.173 1593.29 953.655 1618.33 958.917L1619.18 959.097C1782.71 993.756 1893.72 1161.06 1982.98 1295.52C2014.64 1343.21 2044.52 1388.26 2072.31 1420.08C2103.02 1455.24 2128.5 1471.29 2152.5 1470.6C2178.81 1469.84 2203.8 1448.51 2228.87 1405.54L2229.15 1405.7C2203.99 1448.82 2178.93 1470.16 2152.51 1470.92C2128.41 1471.61 2102.85 1455.52 2072.08 1420.28C2044.24 1388.57 2014.33 1343.52 1982.67 1295.82C1893.46 1161.38 1782.47 994.122 1619.08 959.492L1618.23 959.312C1513.39 937.093 1398.87 982.276 1268.12 1097.42C1196.98 1160.07 1116.5 1209.7 1035.3 1240.92C994.161 1256.74 953.1 1267.77 913.253 1273.7C872.225 1279.8 832.475 1280.5 795.096 1275.76C757.042 1270.8 721.783 1261.4 690.273 1247.85C658.002 1234.03 628.195 1215.04 602.02 1191.65C575.282 1167.72 551.414 1138.29 531.085 1104.19C510.32 1069.35 492.528 1028.42 478.202 982.544C454.421 906.39 396.707 857.425 331.146 857.825C283.767 858.112 236.046 883.247 193.158 930.536C143.247 985.556 101.771 1067.57 69.8985 1174.29Z" fill="url(#paint34_linear_0_1)"/>
</g>
<g style="mix-blend-mode:color-dodge" opacity="0.25">
<path style="mix-blend-mode:color-dodge" d="M71.2121 1163.94L70.865 1163.87C87.1259 1109.7 106.252 1061.31 127.727 1020.04C147.616 981.692 169.715 949.148 193.416 923.152C236.186 876.31 283.969 851.144 331.565 850.508C364.506 850.04 396.062 861.453 422.823 883.508C449.305 905.327 469.792 936.447 482.086 973.5C506.705 1047.67 534.475 1105.62 568.185 1150.17C555.494 1133.33 544.062 1115.57 533.984 1097.05C514.891 1062.36 497.806 1021.98 481.756 973.606C456.715 898.108 397.737 849.919 331.536 850.853C284.03 851.531 236.353 876.61 193.651 923.389C144.019 977.765 102.819 1058.74 71.2121 1163.94ZM757.838 1267.71C728.879 1261.58 703.014 1253.03 679.293 1241.78C663.404 1234.3 648.235 1225.37 633.976 1215.12C669.177 1240.35 709.819 1257.17 757.606 1267.3C764.949 1268.86 772.456 1270.26 780.128 1271.5C918.726 1293.98 1097.27 1227.25 1257.79 1093.01C1292.36 1064.08 1326.11 1039.66 1358.15 1020.33C1389.53 1001.4 1420.31 986.744 1449.64 976.774C1478.25 967.047 1506.46 961.446 1533.51 960.124C1559.58 958.825 1585.69 961.529 1610.95 968.142C1683.98 987.335 1753.29 1030.35 1822.83 1099.66C1883.05 1159.67 1934.1 1229.93 1979.13 1291.92C2011.93 1337.06 2042.96 1379.71 2071.36 1409.51C2102.74 1442.38 2128.54 1457.14 2152.56 1455.93C2179.22 1454.62 2204.17 1433.26 2229.04 1390.7L2229.35 1390.87C2204.46 1433.56 2179.36 1455 2152.63 1456.3C2128.51 1457.51 2102.61 1442.73 2071.16 1409.77C2042.69 1379.93 2011.7 1337.29 1978.9 1292.15C1888.11 1167.18 1775.11 1011.62 1610.91 968.498C1506.61 941.095 1391.21 981.916 1258.02 1093.28C1182.57 1156.4 1100.46 1206.34 1020.54 1237.76C978.457 1254.29 937.185 1265.64 897.693 1271.55C856.27 1277.71 816.687 1277.82 780.014 1271.89C772.449 1270.62 765.058 1269.22 757.84 1267.7L757.838 1267.71Z" fill="url(#paint35_linear_0_1)"/>
</g>
<g style="mix-blend-mode:color-dodge" opacity="0.28">
<path style="mix-blend-mode:color-dodge" d="M72.5258 1153.59L72.1366 1153.51C88.2536 1100.13 107.227 1052.41 128.573 1011.7C135.431 998.594 142.543 986.183 149.907 974.463C122.495 1018.18 95.8468 1076.34 72.5258 1153.59ZM757.674 1266.41C686.376 1251.3 636.014 1223.92 595.1 1178.19C554.95 1133.32 522.111 1069.47 485.3 964.666C459 889.867 398.854 842.42 332.053 843.898C301.859 844.575 244.368 856.53 185.202 925.861C188.12 922.466 191.017 919.168 193.894 915.968C236.507 869.61 284.257 844.547 331.997 843.49C365.302 842.759 397.353 853.859 424.685 875.606C451.668 897.082 472.75 927.833 485.636 964.528C557.394 1168.73 622.691 1239.59 765.088 1267.52C896.245 1293.27 1072.11 1228.12 1247.62 1088.8C1282.49 1061.12 1316.38 1037.86 1348.37 1019.71C1380.01 1001.74 1410.94 988.096 1440.29 979.143C1469.2 970.327 1497.65 965.742 1524.88 965.525C1551.57 965.304 1578.14 969.265 1603.6 977.266C1676.45 1000.08 1745.96 1043.07 1816.09 1108.7C1876.8 1165.52 1928.45 1230.23 1974.02 1287.32C2044.37 1375.46 2099.96 1445.07 2152.58 1441.23C2179.53 1439.25 2204.58 1417.83 2229.13 1375.67L2229.47 1375.88C2204.81 1418.14 2179.68 1439.65 2152.56 1441.61C2146.8 1442.02 2141.01 1441.6 2135.36 1440.37C2087.54 1430.24 2036.5 1366.28 1973.66 1287.56C1881.69 1172.34 1767.23 1028.92 1603.45 977.639C1498.16 944.655 1385.15 980.081 1247.82 1089.06C1167.53 1152.82 1083.78 1203.07 1005.66 1234.42C962.687 1251.68 921.11 1263.33 882.078 1269.15C840.324 1275.36 800.933 1274.93 764.981 1267.87C762.567 1267.44 760.114 1266.93 757.674 1266.41Z" fill="url(#paint36_linear_0_1)"/>
</g>
<g style="mix-blend-mode:color-dodge" opacity="0.3">
<path style="mix-blend-mode:color-dodge" d="M73.8395 1143.25L73.4082 1143.16C89.3925 1090.5 108.214 1043.5 129.41 1003.39C149.081 966.069 170.979 934.263 194.508 908.869C236.97 863.016 284.717 838.019 332.601 836.597C366.272 835.591 398.805 846.387 426.697 867.825C454.192 888.958 475.837 919.334 489.295 955.667C562.09 1152.28 603.437 1229.77 750.153 1263.68C818.116 1279.38 899.077 1268.34 990.742 1230.86C1067.32 1199.55 1150.34 1150.42 1237.53 1084.73C1377.05 979.64 1491.06 948.435 1596.35 986.507C1668.48 1012.6 1737.75 1055.3 1808.07 1117.09C1868.93 1170.39 1920.99 1229.54 1966.97 1281.72C2040.82 1365.63 2099.15 1431.9 2152.51 1426.71C2179.92 1424.05 2205.07 1402.46 2229.43 1360.71L2229.81 1360.93C2205.38 1402.81 2180.07 1424.47 2152.56 1427.15C2145.84 1427.77 2139.06 1427.36 2132.47 1425.92C2084.31 1415.71 2031.45 1355.64 1966.64 1281.99C1873.88 1176.62 1758.47 1045.47 1596.22 986.798C1491.07 948.767 1377.23 979.941 1237.82 1084.95C1150.61 1150.66 1067.49 1199.86 990.886 1231.17C901.157 1267.86 821.686 1279.23 754.554 1265.01C753.039 1264.68 751.535 1264.37 750.02 1264.04C676.673 1247.09 629.311 1219.4 591.672 1171.45C555.11 1124.84 527.326 1059.7 488.845 955.769C461.378 881.603 400.038 834.968 332.592 836.947C284.825 838.393 237.182 863.314 194.806 909.074C145.569 962.259 104.866 1041.04 73.8395 1143.25Z" fill="url(#paint37_linear_0_1)"/>
</g>
<g style="mix-blend-mode:color-dodge" opacity="0.33">
<path style="mix-blend-mode:color-dodge" d="M75.1531 1132.9L74.6797 1132.8C105.447 1032.02 145.938 954.24 195.047 901.61C237.361 856.243 285.125 831.325 333.151 829.538C367.186 828.269 400.212 838.763 428.656 859.878C456.652 880.667 478.858 910.679 492.852 946.664C498.501 961.189 503.795 974.948 508.92 988.263C574.855 1159.46 599.518 1223.52 735.122 1259.66C801.229 1277.27 882.21 1266.45 975.778 1227.46C1049.63 1196.65 1131.93 1148.57 1227.36 1080.43C1298.95 1029.32 1362.5 997.719 1421.51 983.799C1480.52 969.879 1535.5 973.698 1588.96 995.523C1748.19 1060.54 1863.92 1179.36 1956.92 1274.83C2035.46 1355.44 2097.46 1419.09 2152.07 1412.39C2180.03 1408.97 2205.36 1387.15 2229.53 1345.72L2229.95 1345.96C2205.69 1387.54 2180.23 1409.43 2152.14 1412.88C2126.88 1415.97 2098.72 1404.6 2063.5 1377.08C2031.45 1352.02 1996.73 1316.4 1956.57 1275.16C1863.59 1179.73 1747.9 1060.95 1588.78 995.979C1483.57 953.023 1368.84 979.988 1227.61 1080.81C1132.18 1148.98 1049.86 1197.08 975.968 1227.86C931.358 1246.46 889.274 1258.79 850.962 1264.53C808.759 1270.84 769.705 1269.34 734.999 1260.08C667.831 1242.19 627.384 1217.49 595.437 1174.68C564.012 1132.63 541.913 1075.25 508.518 988.398C503.391 975.093 498.086 961.332 492.439 946.796C463.81 873.295 401.347 827.444 333.182 829.963C285.284 831.766 237.642 856.632 195.423 901.855C146.362 954.472 105.895 1032.19 75.1531 1132.9Z" fill="url(#paint38_linear_0_1)"/>
</g>
<g style="mix-blend-mode:color-dodge" opacity="0.35">
<path style="mix-blend-mode:color-dodge" d="M76.4773 1122.56L75.9619 1122.45C106.439 1023.15 146.707 946.414 195.633 894.383C237.837 849.487 285.591 824.667 333.76 822.569C368.152 821.068 401.698 831.233 430.681 852.033C459.177 872.489 481.913 902.129 496.425 937.741C512.572 977.357 525.373 1011.76 536.658 1042.12C583.591 1168.14 602.95 1220.29 720.12 1255.71C785.388 1275.46 864.125 1265.12 960.806 1224.1C1050.31 1186.12 1140.65 1128.07 1217.22 1076.27C1289.41 1027.44 1353.14 997.955 1412.06 986.115C1472.01 974.065 1527.48 980.142 1581.65 1004.7C1735.59 1074.47 1850.5 1180.79 1942.8 1266.21C1986.42 1306.57 2024.09 1341.43 2058.36 1365.51C2095.78 1391.81 2125.32 1402.25 2151.42 1398.36C2180.07 1394.1 2205.68 1371.99 2229.72 1330.76L2230.18 1331.03C2206.02 1372.39 2180.31 1394.6 2151.5 1398.89C2125.29 1402.8 2095.61 1392.34 2058.08 1365.9C2023.77 1341.8 1986.1 1306.94 1942.47 1266.56C1850.17 1181.15 1735.3 1074.89 1581.45 1005.15C1474.54 956.691 1362.31 978.757 1217.52 1076.67C1140.93 1128.47 1050.58 1186.54 961.031 1224.49C915.595 1243.77 873.317 1256.44 835.367 1262.14C792.99 1268.54 754.21 1266.47 719.989 1256.12C690.674 1247.26 667.261 1237.25 648.425 1225.57C630.375 1214.61 614.544 1200.36 601.756 1183.56C576.39 1150.41 559.516 1105.04 536.154 1042.26C524.867 1011.92 512.077 977.516 495.938 937.912C466.307 865.089 402.614 820.01 333.786 823.069C285.743 825.193 238.094 850.036 196.004 894.759C147.157 946.674 106.936 1023.34 76.4773 1122.56Z" fill="url(#paint39_linear_0_1)"/>
</g>
<g style="mix-blend-mode:color-dodge" opacity="0.38">
<path style="mix-blend-mode:color-dodge" d="M727.668 1258.47C719.972 1256.85 712.379 1254.76 704.93 1252.24C654.52 1235.13 623.925 1215.72 602.614 1187.29C581.859 1159.61 569.867 1123.67 553.282 1073.93C540.491 1035.54 524.548 987.752 499.499 928.942C468.772 856.777 404.025 812.475 334.513 816.059C286.289 818.518 238.625 843.226 196.675 887.495C148.005 938.888 107.967 1014.48 77.791 1112.21L77.2446 1112.04C107.439 1014.23 147.484 938.547 196.252 887.108C238.325 842.723 286.112 817.954 334.44 815.472C369.244 813.685 403.244 823.572 432.81 844.013C461.816 864.137 485.072 893.393 500.089 928.595C525.13 987.447 541.08 1035.25 553.901 1073.66C587.578 1174.63 601.527 1216.43 705.236 1251.62C768.811 1273.19 847.563 1263.04 945.934 1220.58C1035.24 1182.04 1130.51 1121.04 1207.08 1072.04C1279.79 1025.51 1343.73 998.125 1402.56 988.31C1463.22 978.191 1519.45 986.536 1574.34 1013.81C1719.79 1086.04 1832.1 1179.66 1922.35 1254.89C2020 1336.3 2090.57 1395.1 2150.35 1384.61C2179.89 1379.42 2205.91 1356.9 2229.91 1315.77L2230.41 1316.06C2206.27 1357.35 2180.16 1379.97 2150.44 1385.19C2090.39 1395.74 2019.76 1336.85 1921.98 1255.35C1831.74 1180.19 1719.46 1086.54 1574.07 1014.33C1466.67 961 1353.61 978.957 1207.37 1072.54C1130.8 1121.55 1035.5 1182.54 946.001 1221.19C858.948 1258.79 787.195 1271.09 727.668 1258.47Z" fill="url(#paint40_linear_0_1)"/>
</g>
<g style="mix-blend-mode:color-dodge" opacity="0.41">
<path style="mix-blend-mode:color-dodge" d="M717.277 1256.31C707.969 1254.35 698.824 1251.67 689.921 1248.32C596.204 1213.07 585.875 1175.46 563.222 1093.16C551.073 1049.04 535.956 994.136 503.057 919.983C471.357 848.524 405.426 804.981 335.169 809.078C286.837 811.888 239.223 836.518 197.325 880.282C148.773 931.062 109 1005.61 79.1046 1101.86L78.505 1101.73C108.423 1005.38 148.257 930.7 196.876 879.857C238.836 836.008 286.648 811.276 335.115 808.451C370.301 806.415 404.797 815.99 434.865 836.185C464.359 855.974 488.139 884.836 503.602 919.747C536.528 993.928 551.662 1048.86 563.795 1092.99C586.394 1175.08 596.712 1212.54 690.12 1247.75C748.576 1269.77 821.362 1262.3 912.594 1224.89C993.395 1191.85 1078.35 1140.06 1160.52 1090C1172.5 1082.65 1184.88 1075.15 1196.95 1067.85C1344.64 978.505 1458.76 964.653 1566.99 1022.93C1699.05 1094.03 1805.69 1174.46 1891.38 1239.07C2003.21 1323.39 2083.95 1384.27 2148.58 1371.31C2179.32 1365.14 2205.98 1342.06 2230.07 1300.76L2230.59 1301.07C2206.42 1342.53 2179.63 1365.7 2148.71 1371.91C2135.36 1374.58 2121.31 1374.15 2106.47 1371C2049.2 1358.87 1979.9 1306.6 1891.01 1239.57C1805.34 1174.96 1698.72 1094.56 1566.7 1023.47C1458.67 965.304 1344.72 979.149 1197.24 1068.38C1185.17 1075.71 1172.79 1083.22 1160.82 1090.52C1078.66 1140.6 993.678 1192.38 912.9 1225.47C869.232 1243.36 830.896 1254.19 795.685 1258.57C767.134 1262.12 741.25 1261.39 717.277 1256.31Z" fill="url(#paint41_linear_0_1)"/>
</g>
<g style="mix-blend-mode:color-dodge" opacity="0.43">
<path style="mix-blend-mode:color-dodge" d="M705.649 1253.93C695.123 1251.71 684.826 1248.53 674.89 1244.41C589.116 1208.81 582.096 1174 568.129 1104.65C559.01 1059.51 546.605 997.723 506.609 911.056C473.942 840.27 406.922 797.508 335.876 802.108C228.827 809.021 135.725 914.474 80.416 1091.52L79.7877 1091.33C109.425 996.452 149.04 922.856 197.507 872.629C239.371 829.232 287.2 804.625 335.833 801.483C371.426 799.138 406.394 808.45 437.006 828.31C466.958 847.756 491.269 876.291 507.198 910.818C547.225 997.547 559.684 1059.39 568.775 1104.55C582.703 1173.68 589.64 1208.36 675.132 1243.83C795.518 1293.74 957.99 1198.02 1115.12 1105.46C1138.71 1091.56 1163.11 1077.17 1186.8 1063.66C1260.25 1021.7 1324.57 998.469 1383.4 992.632C1445.52 986.471 1503.19 999.342 1559.7 1032.07C1670.23 1096.06 1761.23 1158.96 1841.52 1214.45C1909.51 1261.44 1968.22 1302.03 2018.11 1328.22C2071.81 1356.43 2112.39 1366.1 2145.86 1358.6C2178.28 1351.39 2205.9 1327.55 2230.28 1285.73L2230.85 1286.06C2206.36 1328.05 2178.62 1351.99 2146 1359.27C2112.38 1366.75 2071.65 1357.06 2017.8 1328.81C1967.88 1302.59 1909.15 1261.99 1841.14 1214.99C1760.87 1159.52 1669.88 1096.61 1559.37 1032.64C1450.51 969.628 1335.71 979.372 1187.14 1064.23C1163.44 1077.77 1139.05 1092.14 1115.46 1106.03C971.194 1191.01 822.409 1278.67 705.649 1253.93Z" fill="url(#paint42_linear_0_1)"/>
</g>
<g style="mix-blend-mode:color-dodge" opacity="0.46">
<path style="mix-blend-mode:color-dodge" d="M694.054 1251.69C682.282 1249.21 670.816 1245.45 659.862 1240.48C622.15 1223.36 599.833 1206.27 587.51 1185.07C575.752 1164.83 573.013 1141.09 569.555 1111.04C564.119 1063.82 556.665 999.163 510.165 902.107C476.573 832.004 408.446 790.007 336.623 795.113C229.378 802.742 136.483 907.009 81.7297 1081.18L81.0616 1080.96C110.421 987.554 149.825 915.001 198.21 865.317C239.928 822.405 287.804 797.886 336.571 794.421C372.665 791.888 408.622 800.98 439.174 820.364C469.668 839.485 494.429 867.654 510.799 901.813C557.344 998.966 564.815 1063.65 570.254 1110.96C577.151 1170.88 580.958 1203.9 660.141 1239.89C710.506 1262.75 773.585 1259.53 852.988 1230.03C923.946 1203.64 1001.35 1159.1 1076.21 1116C1109.23 1097 1143.38 1077.35 1176.67 1059.43C1250.37 1019.75 1314.86 998.621 1373.77 994.701C1436.63 990.553 1495.05 1005.76 1552.37 1041.18C1626.41 1086.92 1693.25 1130.56 1752.23 1169.07C1934.93 1288.34 2055.62 1367.14 2141.32 1346.89C2176.24 1338.64 2205.39 1313.74 2230.45 1270.75L2231.05 1271.11C2205.89 1314.26 2176.58 1339.28 2141.48 1347.57C2055.48 1367.89 1934.69 1289.03 1751.85 1169.66C1692.87 1131.15 1626.03 1087.51 1551.99 1041.77C1442.17 973.916 1326.52 979.555 1176.99 1060.08C1143.72 1078 1109.57 1097.65 1076.55 1116.64C1001.66 1159.72 924.23 1204.27 853.242 1230.64C815.059 1244.84 781.604 1252.82 751.061 1255.04C730.597 1256.53 711.716 1255.43 694.054 1251.69Z" fill="url(#paint43_linear_0_1)"/>
</g>
<g style="mix-blend-mode:color-dodge" opacity="0.48">
<path style="mix-blend-mode:color-dodge" d="M681.769 1249.34C668.967 1246.64 656.554 1242.34 644.822 1236.55C570.194 1199.71 569.594 1169.25 568.512 1113.94C567.568 1065.39 566.263 998.945 513.717 893.18C479.225 823.743 410.001 782.514 337.367 788.128C229.932 796.443 137.23 899.542 83.0538 1070.83L82.3436 1070.61C111.416 978.656 150.613 907.136 198.841 858.034C240.501 815.604 288.381 791.173 337.324 787.394C373.778 784.595 410.188 793.369 441.364 812.466C472.355 831.264 497.602 859.064 514.389 892.86C567.011 998.784 568.315 1065.34 569.269 1113.94C570.348 1168.96 570.971 1199.26 645.159 1235.9C693.28 1259.64 751.205 1257.99 827.471 1230.67C894.925 1206.51 966.2 1166.18 1041.66 1123.48C1082.63 1100.3 1124.98 1076.31 1166.54 1055.29C1240.41 1017.87 1305.02 998.733 1364.12 996.797C1427.69 994.703 1486.88 1012.23 1545.04 1050.35L1559.86 1060.08C1847.95 1248.98 2021.85 1362.99 2133.54 1336.7C2172.48 1327.54 2204.22 1301.14 2230.62 1255.83L2231.26 1256.2C2204.76 1301.65 2172.86 1328.21 2133.71 1337.43C2110.19 1342.96 2083.93 1342.26 2054.46 1336.02C1943.59 1312.52 1787.18 1209.97 1559.46 1060.66L1544.64 1050.93C1433.72 978.212 1317.21 979.737 1166.88 1055.9C1125.33 1076.97 1082.97 1100.95 1042.02 1124.14C966.53 1166.86 895.218 1207.2 827.706 1231.38C791.426 1244.38 759.713 1251.4 730.826 1252.86C714.391 1253.82 697.899 1252.64 681.769 1249.34Z" fill="url(#paint44_linear_0_1)"/>
</g>
<g style="mix-blend-mode:color-dodge" opacity="0.51">
<path style="mix-blend-mode:color-dodge" d="M669.167 1246.93C655.432 1244.05 642.175 1239.23 629.793 1232.63C559.087 1194.87 561.593 1164.58 565.767 1114.39C569.867 1065.02 575.479 997.415 517.271 884.241C481.901 815.476 411.575 775.035 338.134 781.138C230.502 790.125 138.004 891.948 84.3675 1060.49L83.6152 1060.25C112.412 969.758 151.403 899.26 199.46 850.759C241.017 808.813 288.942 784.48 338.031 780.38C411.804 774.215 482.405 814.858 517.935 883.91C576.244 997.28 570.615 1065.01 566.509 1114.47C562.37 1164.33 559.87 1194.44 630.123 1231.95C730.212 1285.42 866.201 1209.32 1010.18 1128.78C1057.99 1102.03 1107.44 1074.38 1156.34 1051.1C1230.3 1015.91 1295.07 998.81 1354.37 998.808C1418.69 998.805 1478.64 1018.66 1537.66 1059.5C1693.02 1167.01 1806.86 1236.77 1895.91 1279.03C1993.35 1325.26 2065.03 1340.96 2121.49 1328.41C2166.47 1318.42 2202.22 1289.78 2230.74 1240.84L2231.43 1241.24C2202.78 1290.37 2166.87 1319.14 2121.67 1329.19C2065.02 1341.77 1993.18 1326.06 1895.57 1279.74C1806.48 1237.46 1692.61 1167.68 1537.21 1060.15C1425.06 982.542 1307.7 979.963 1156.68 1051.81C1107.78 1075.08 1058.35 1102.72 1010.52 1129.46C884.501 1200 764.492 1267.12 669.167 1246.93Z" fill="url(#paint45_linear_0_1)"/>
</g>
<g style="mix-blend-mode:color-dodge" opacity="0.54">
<path style="mix-blend-mode:color-dodge" d="M656.489 1244.67C641.822 1241.58 627.736 1236.19 614.753 1228.71C582.982 1210.42 565.972 1193.55 559.609 1173.99C553.69 1155.81 557.286 1136.93 561.833 1113.04C571.309 1063.14 584.372 994.816 520.823 875.314C484.599 807.203 413.196 767.489 338.926 774.131C289.887 778.516 242.11 802.672 200.783 843.996C152.879 891.882 114.165 961.229 85.6811 1050.14L84.9189 1049.85C113.44 960.812 152.223 891.347 200.198 843.389C241.675 801.921 289.603 777.73 338.854 773.28C413.485 766.594 485.21 806.497 521.585 874.882C585.235 994.637 572.223 1063.14 562.688 1113.15C553.626 1160.68 548.162 1189.36 615.2 1227.94C658.659 1252.94 711.373 1253.62 781.085 1230.06C843.103 1209.14 910.145 1171.88 981.104 1132.48C1034.94 1102.57 1090.6 1071.66 1146.29 1046.84C1220.26 1013.87 1285.17 998.789 1344.73 1000.72C1409.79 1002.83 1470.53 1025.02 1530.39 1068.57C1669.71 1169.97 1784.19 1239.49 1880.27 1281.1C1972.83 1321.2 2046.68 1334.63 2106.05 1322.17C2158.79 1311.1 2199.71 1279.6 2231.02 1225.84L2231.73 1226.26C2200.27 1280.22 2159.2 1311.87 2106.22 1322.99C2046.68 1335.48 1972.66 1322.03 1879.95 1281.87C1783.84 1240.24 1669.39 1170.71 1529.93 1069.3C1416.45 986.76 1298.24 980.077 1146.63 1047.65C1090.94 1072.45 1035.33 1103.36 981.462 1133.28C910.454 1172.71 843.416 1209.95 781.318 1230.93C732.199 1247.47 691.506 1252.09 656.489 1244.67Z" fill="url(#paint46_linear_0_1)"/>
</g>
<g style="mix-blend-mode:color-dodge" opacity="0.56">
<path style="mix-blend-mode:color-dodge" d="M643.245 1242.23C627.819 1238.99 613.077 1233.08 599.683 1224.77C534.671 1184.62 543.591 1155.08 557.083 1110.35C572.234 1060.13 592.978 991.344 524.335 866.367C487.29 798.917 414.779 759.968 339.618 767.135C231.682 777.453 139.539 876.825 87.0474 1039.8L86.2132 1039.54C114.45 951.95 153.037 883.509 200.892 836.119C242.225 795.126 290.209 770.98 339.571 766.268C415.081 759.065 487.916 798.192 525.084 865.943C593.911 991.245 573.104 1060.22 557.866 1110.59C544.491 1154.93 535.667 1184.22 600.084 1224.01C641.644 1249.68 692.243 1251.32 759.329 1229.2C819.166 1209.44 884.453 1173.31 953.561 1135.11C1012.79 1102.36 1074.04 1068.49 1136.02 1042.68C1209.96 1011.89 1275.02 998.803 1334.87 1002.66C1400.68 1006.92 1462.21 1031.48 1522.97 1077.69C1766.61 1263.22 1956.2 1344.22 2086.52 1318.32C2147.93 1306.13 2196.55 1269.95 2231.07 1210.78L2231.82 1211.23C2197.27 1270.68 2148.47 1307 2086.79 1319.2C2049.66 1326.56 2007.77 1325.3 1961.12 1315.41C1843.87 1290.56 1697.04 1211.29 1522.54 1078.4C1407.62 990.898 1288.55 980.124 1136.45 1043.45C1074.51 1069.25 1013.29 1103.11 954.087 1135.85C884.935 1174.09 819.617 1210.22 759.7 1229.99C714.084 1245.09 676.033 1249.18 643.245 1242.23Z" fill="url(#paint47_linear_0_1)"/>
</g>
<g style="mix-blend-mode:color-dodge" opacity="0.59">
<path style="mix-blend-mode:color-dodge" d="M629.775 1239.77C613.682 1236.38 598.38 1229.96 584.685 1220.85C555.203 1201.42 540.843 1183.97 537.996 1164.37C535.408 1146.39 543.045 1127.99 551.882 1106.68C572.803 1056.25 601.465 987.188 527.931 857.438C509.481 824.787 481.932 798.204 448.638 780.926C415.345 763.649 377.746 756.424 340.421 760.13C232.2 771.069 140.313 869.231 88.3085 1029.45L87.4344 1029.16C115.395 943.03 153.779 875.601 201.514 828.779C242.807 788.283 290.812 764.197 340.328 759.22C377.831 755.493 415.61 762.751 449.062 780.111C482.514 797.471 510.194 824.183 528.729 856.991C602.478 987.128 573.744 1056.43 552.732 1107.02C534.76 1150.33 522.905 1178.93 585.19 1220.08C625.057 1246.42 673.777 1248.93 738.49 1228C796.392 1209.29 860.114 1174.1 927.584 1136.85C991.765 1101.47 1058.02 1064.9 1126.02 1038.5C1199.87 1009.85 1265.04 998.743 1325.24 1004.57C1391.8 1010.98 1454.13 1037.92 1515.76 1086.9C1635 1181.64 1744.32 1248.65 1840.67 1286.06C1924.82 1318.73 1999.89 1329.21 2063.78 1317.21C2134.87 1303.87 2192.8 1261.9 2231.29 1195.85L2232.09 1196.32C2193.44 1262.6 2135.28 1304.71 2063.93 1318.11C1999.83 1330.13 1924.63 1319.64 1840.31 1286.9C1743.83 1249.46 1634.43 1182.4 1515.13 1087.6C1398.7 995.083 1278.78 980.205 1126.29 1039.34C1058.42 1065.69 992.144 1102.27 928.038 1137.66C860.533 1174.93 796.772 1210.14 738.788 1228.88C696.271 1242.63 660.595 1246.3 629.775 1239.77Z" fill="url(#paint48_linear_0_1)"/>
</g>
<g style="mix-blend-mode:color-dodge" opacity="0.61">
<path style="mix-blend-mode:color-dodge" d="M616.102 1237.28C599.382 1233.75 583.568 1226.82 569.648 1216.92C508.44 1173.8 524.333 1143.78 546.329 1102.23C573.091 1051.67 609.735 982.447 531.474 848.552C492.824 782.399 418.126 744.954 341.171 753.169C232.763 764.728 141.087 861.638 89.6304 1019.11L88.7165 1018.81C116.384 934.109 154.574 867.705 202.188 821.45C243.391 781.429 291.414 757.468 341.075 752.171C418.402 743.914 493.513 781.534 532.318 847.995C610.845 982.396 574.055 1051.9 547.187 1102.64C536.196 1123.38 526.749 1141.25 527.702 1159.05C528.721 1178.26 542.232 1196.39 570.205 1216.1C654.087 1275.19 769.28 1211.55 902.66 1137.86C971.248 1100 1042.15 1060.81 1115.91 1034.32C1189.67 1007.82 1254.92 998.651 1315.5 1006.4C1382.81 1015.02 1445.95 1044.35 1508.46 1096.04C1717.75 1269.05 1896.19 1343.92 2038.83 1318.56C2147.93 1299.19 2206.38 1223.96 2231.5 1180.88L2232.33 1181.36C2212.65 1215.1 2187.87 1243.75 2158.67 1266.53C2123.73 1293.77 2082.61 1311.96 2038.95 1319.5C1973.63 1331.1 1899.42 1321.3 1818.35 1290.33C1724.05 1254.3 1619.56 1189.18 1507.8 1096.78C1389.76 999.243 1268.99 980.24 1116.18 1035.22C1042.58 1061.7 971.679 1100.87 903.12 1138.75C837.133 1175.23 774.744 1209.68 718.502 1227.51C678.699 1240.13 645.124 1243.43 616.102 1237.28Z" fill="url(#paint49_linear_0_1)"/>
</g>
<g style="mix-blend-mode:color-dodge" opacity="0.64">
<path style="mix-blend-mode:color-dodge" d="M602.339 1234.74C585.02 1231.1 568.721 1223.67 554.608 1212.99C494.855 1168.2 514.029 1138.41 540.596 1097.18C573.209 1046.56 617.876 977.227 535.037 839.572C495.604 774.055 419.805 737.343 341.92 746.108C233.343 758.258 141.811 854.023 90.944 1008.76L89.988 1008.45C117.384 925.19 155.357 859.806 202.864 814.11C243.97 774.552 292.024 750.697 341.8 745.116C420.076 736.324 496.32 773.218 535.893 839.061C619.101 977.256 574.196 1046.87 541.448 1097.72C515.217 1138.51 496.193 1167.95 555.218 1212.19C635.991 1272.72 748.408 1210.46 878.621 1138.38C951.36 1098.1 1026.57 1056.44 1105.78 1030.11C1179.33 1005.66 1244.74 998.494 1305.73 1008.21C1373.78 1019.04 1437.7 1050.76 1501.14 1105.17C1697.14 1273.3 1869.4 1346.28 2013.16 1322.08C2136.17 1301.37 2202.85 1215.33 2231.73 1165.89L2232.6 1166.41C2217.92 1191.58 2192 1228.32 2152.13 1260.47C2112.08 1293.02 2064.24 1314.59 2013.32 1323.07C1947.6 1334.14 1874.66 1324.55 1796.54 1294.58C1705.15 1259.53 1605.54 1196.06 1500.48 1105.94C1380.79 1003.28 1259.16 980.179 1106.09 1031.07C1026.97 1057.37 951.805 1099.01 879.105 1139.26C772.476 1198.28 677.759 1250.73 602.339 1234.74Z" fill="url(#paint50_linear_0_1)"/>
</g>
<g style="mix-blend-mode:color-dodge" opacity="0.66">
<path style="mix-blend-mode:color-dodge" d="M588.216 1232.15C570.409 1228.39 553.741 1220.47 539.57 1209.06C512.62 1187.63 501.232 1168.24 503.718 1148.06C505.998 1129.58 519.34 1112 534.788 1091.65C573.245 1040.99 625.916 971.602 538.589 830.644C498.387 765.745 421.467 729.817 342.637 739.096C233.89 751.891 142.621 846.415 92.2577 998.417L91.2304 998.079C118.369 916.29 156.146 851.885 203.49 806.749C244.503 767.677 292.57 743.923 342.476 738.04C381.655 733.362 421.358 739.906 456.964 756.91C491.524 773.443 520.047 798.75 539.467 830.083C578.349 892.857 593.294 946.756 585.146 994.849C578.137 1036.22 555.542 1066.02 535.612 1092.27C504.738 1132.98 482.44 1162.31 540.205 1208.24C618.137 1270.2 727.974 1209.11 855.2 1138.37C928.218 1097.81 1010.96 1051.74 1095.57 1025.91C1168.93 1003.49 1234.42 998.274 1295.87 1009.96C1364.71 1023.04 1429.39 1057.17 1493.74 1114.3C1678.64 1278.49 1844.94 1350.17 1987.99 1327.35C2128.26 1304.96 2205.24 1196.48 2231.83 1150.89L2232.74 1151.43C2206.08 1197.15 2128.86 1305.92 1988.16 1328.38C1922.62 1338.84 1851.11 1329.2 1775.61 1299.75C1687.34 1265.3 1592.32 1203.19 1493.06 1115.08C1371.65 1007.28 1249.16 980.081 1095.91 1026.91C1011.42 1052.72 928.708 1098.72 855.73 1139.3C752.699 1196.59 661.019 1247.57 588.216 1232.15Z" fill="url(#paint51_linear_0_1)"/>
</g>
<g style="mix-blend-mode:color-dodge" opacity="0.69">
<path style="mix-blend-mode:color-dodge" d="M574.057 1229.66C555.752 1225.77 538.721 1217.33 524.532 1205.12C503.378 1187.31 492.483 1170.78 491.275 1154.6C489.467 1131.03 507.796 1110.05 529.016 1085.74C573.281 1035.07 633.903 965.659 542.173 821.723C501.213 757.443 423.189 722.26 343.377 732.078C234.436 745.479 143.401 838.79 93.6135 988.079L92.5861 987.741C119.418 907.348 156.984 843.987 204.242 799.415C245.161 760.839 293.277 737.161 343.265 730.999C382.849 726.07 423.026 732.302 459.258 748.991C494.344 765.217 523.34 790.163 543.094 821.161C583.95 885.309 598.658 940.069 588.074 988.448C578.939 1030.2 552.83 1060.09 529.809 1086.46C508.741 1110.57 490.553 1131.4 492.305 1154.51C493.522 1170.39 504.286 1186.71 525.205 1204.33C600.503 1267.73 707.998 1207.63 832.464 1138.04C908.956 1095.24 995.659 1046.79 1085.47 1021.71C1158.59 1001.31 1224.21 998.011 1286.11 1011.68C1355.65 1027.03 1421.18 1063.59 1486.43 1123.44C1662.08 1284.57 1822.85 1355.42 1964.27 1334.02C2114.97 1311.22 2201.72 1187.88 2232.03 1135.92L2233.01 1136.48C2215.64 1166.26 2185.53 1210.1 2140.86 1249.73C2088.05 1296.66 2028.67 1325.38 1964.41 1335.09C1923.01 1341.36 1879.99 1339.76 1835.37 1330.29C1727.3 1307.39 1610.21 1238.48 1485.68 1124.24C1362.48 1011.24 1239.14 979.946 1085.74 1022.76C996.017 1047.8 909.409 1096.22 832.998 1138.94C770.776 1173.74 712.04 1206.6 660.155 1222.34C627.05 1232.4 598.735 1234.89 574.057 1229.66Z" fill="url(#paint52_linear_0_1)"/>
</g>
<g style="mix-blend-mode:color-dodge" opacity="0.72">
<path style="mix-blend-mode:color-dodge" d="M559.757 1227.07C541.023 1223.1 524.457 1214.5 509.492 1201.2C489.214 1183.14 479.091 1166.49 478.517 1150.28C477.717 1125.58 498.783 1104.24 523.188 1079.53C549.216 1053.18 578.717 1023.26 589.868 981.488C602.792 933.111 588.339 877.877 545.659 812.793C503.952 749.134 424.8 714.657 343.994 725.067C234.985 739.047 144.176 831.141 94.885 977.723L93.8072 977.363C120.315 898.396 157.71 836.054 204.836 792.047C245.673 753.915 293.751 730.361 343.885 723.923C383.892 718.704 424.565 724.603 461.442 740.971C497.061 756.86 526.501 781.471 546.609 812.148C589.46 877.565 603.963 933.085 590.964 981.764C579.729 1023.83 550.122 1053.84 523.991 1080.31C499.776 1104.84 478.874 1126.04 479.659 1150.23C480.171 1166.12 490.164 1182.5 510.212 1200.34C543.567 1230.02 585.093 1235.99 641 1219.27C691.475 1204.11 749.181 1171.65 810.247 1137.27C889.991 1092.41 980.282 1041.55 1075.34 1017.52C1148.21 999.077 1213.95 997.716 1276.33 1013.38C1346.61 1031.01 1412.93 1070.01 1479.11 1132.58C1647.04 1291.4 1802.84 1361.78 1942.16 1341.77C2095.2 1319.79 2189.58 1193.97 2232.17 1120.91L2233.15 1121.5C2190.45 1194.71 2095.88 1320.85 1942.31 1342.89C1802.61 1362.95 1646.47 1292.45 1478.28 1133.4C1354.96 1016.77 1227 980.296 1075.57 1018.61C980.717 1042.61 890.446 1093.43 810.799 1138.3C749.65 1172.7 691.935 1205.21 641.322 1220.39C610.078 1229.76 583.225 1232.04 559.757 1227.07Z" fill="url(#paint53_linear_0_1)"/>
</g>
<g style="mix-blend-mode:color-dodge" opacity="0.74">
<path style="mix-blend-mode:color-dodge" d="M545.341 1224.46C526.27 1220.41 509.502 1211.37 494.454 1197.26C474.982 1178.99 465.612 1162.21 465.759 1145.96C465.964 1120.05 489.879 1098.33 517.614 1073.05C546.715 1046.58 579.696 1016.57 592.904 974.528C608.169 925.944 593.908 870.113 549.31 803.864C506.852 740.794 426.555 707.107 344.737 718.038C235.514 732.61 144.982 823.5 96.1964 967.387L95.0893 967.01C121.354 889.452 158.505 828.102 205.485 784.68C246.211 747.019 294.28 723.562 344.527 716.85C384.987 711.355 426.183 716.934 463.726 732.994C499.895 748.571 529.802 772.842 550.233 803.192C595.049 869.762 609.35 925.92 593.973 974.875C580.682 1017.21 547.564 1047.34 518.355 1073.91C490.836 1098.95 467.086 1120.56 466.881 1145.95C466.805 1161.87 476.048 1178.37 495.263 1196.4C527.588 1226.75 568.014 1233.34 622.489 1217.15C671.761 1202.48 728.513 1170.32 788.546 1136.26C871.317 1089.3 965.121 1036.08 1065.21 1013.33C1137.81 996.851 1203.68 997.374 1266.55 1015.03C1337.56 1034.98 1404.69 1076.41 1471.78 1141.72C1633.23 1298.89 1784.69 1369.07 1921.84 1350.39C2005.09 1339.05 2126.55 1287.43 2232.39 1105.94L2233.36 1106.53C2221.9 1126.18 2187.02 1186 2132.62 1240.2C2068.86 1303.73 1998.01 1341.19 1921.95 1351.58C1883.61 1356.8 1844.18 1355.11 1803.68 1346.53C1698.99 1324.34 1587.56 1256.12 1470.92 1142.59C1345.75 1020.76 1216.9 980.057 1065.42 1014.49C965.495 1037.27 871.777 1090.4 789.08 1137.31C728.985 1171.41 672.214 1203.61 622.771 1218.31C593.202 1227.08 567.694 1229.19 545.341 1224.46Z" fill="url(#paint54_linear_0_1)"/>
</g>
<g style="mix-blend-mode:color-dodge" opacity="0.77">
<path style="mix-blend-mode:color-dodge" d="M530.818 1221.83C511.442 1217.72 494.521 1208.26 479.412 1193.35C460.702 1174.85 451.969 1157.87 452.69 1141.6C453.896 1114.39 480.825 1092.14 512.005 1066.38C576.782 1012.84 657.4 946.223 552.807 794.936C510.299 733.448 426.886 699.683 345.306 710.994C281.097 719.9 163.511 763.719 97.5101 957.04L96.3527 956.641C122.375 880.538 159.257 820.196 206.116 777.298C246.73 740.108 294.788 716.758 345.134 709.782C386.034 704.012 427.734 709.265 465.926 725C502.655 740.267 533.041 764.2 553.805 794.17C600.564 861.789 614.69 918.569 596.993 967.736C581.671 1010.31 545.067 1040.56 512.779 1067.24C481.825 1092.82 455.092 1114.92 453.907 1141.57C453.198 1157.51 461.819 1174.14 480.277 1192.38C511.628 1223.38 550.991 1230.52 604.115 1214.85C652.334 1200.64 708.102 1168.76 767.18 1134.9C852.855 1085.86 949.95 1030.28 1055.05 1009.04C1206.98 978.349 1337.06 1023.39 1464.43 1150.75C1620.49 1306.89 1768.18 1377.11 1903.31 1359.54C2027.52 1343.5 2137.66 1254.31 2230.5 1094.5L2232.57 1090.96L2233.62 1091.58L2231.55 1095.12C2214.96 1123.65 2180.44 1183.04 2125.93 1239.52C2058.23 1309.65 1983.39 1350.48 1903.47 1360.86C1866.6 1365.65 1828.85 1363.94 1790.24 1355.75C1686.84 1333.83 1577.43 1265.59 1463.62 1151.73C1336.57 1024.66 1206.84 979.737 1055.34 1010.33C950.444 1031.53 853.436 1087.06 767.848 1136.06C708.719 1169.89 652.866 1201.86 604.518 1216.11C576.417 1224.34 552.129 1226.34 530.818 1221.83Z" fill="url(#paint55_linear_0_1)"/>
</g>
<g style="mix-blend-mode:color-dodge" opacity="0.79">
<path style="mix-blend-mode:color-dodge" d="M516.171 1219.16C496.532 1215 479.478 1205.12 464.357 1189.39C446.344 1170.66 438.223 1153.59 439.511 1137.2C441.745 1108.61 471.793 1085.8 506.543 1059.48C577.246 1005.93 665.141 939.26 556.311 785.976C513.061 725.035 428.476 692.076 345.841 704.01C281.571 713.254 164.019 757.069 98.7495 946.732L97.55 946.324C123.271 871.641 159.95 812.311 206.659 769.963C247.176 733.236 295.211 709.991 345.641 702.725C387.028 696.648 429.288 701.576 468.168 717.014C505.462 731.951 536.313 755.554 557.399 785.251C666.934 939.564 578.453 1006.62 507.361 1060.5C472.808 1086.67 442.993 1109.26 440.798 1137.29C439.536 1153.31 447.546 1170.07 465.291 1188.51C495.722 1220.17 534.086 1227.83 586.008 1212.64C633.185 1198.84 688.112 1167.09 746.258 1133.42C834.674 1082.39 934.926 1024.42 1044.95 1004.99C1117.02 992.235 1183.11 996.584 1246.99 1018.3C1319.44 1042.92 1388.17 1089.28 1457.13 1160.05C1609.13 1316.05 1753.95 1386.48 1887.6 1369.36C2079.94 1344.69 2191 1149.44 2227.48 1085.28C2229.53 1081.69 2231.3 1078.59 2232.74 1076.03L2233.84 1076.67C2232.35 1079.21 2230.59 1082.31 2228.58 1085.9C2211.03 1116.85 2174.31 1181.2 2117.62 1241.7C2047.22 1316.64 1969.88 1360.01 1887.7 1370.54C1851.86 1375.14 1815.24 1373.47 1777.83 1365.54C1675.5 1343.85 1567.77 1275.38 1456.2 1160.87C1327.27 1028.57 1196.66 979.371 1045.2 1006.14C935.363 1025.62 835.231 1083.5 746.884 1134.57C688.673 1168.23 633.695 1200.01 586.366 1213.86C559.684 1221.66 536.546 1223.48 516.171 1219.16Z" fill="url(#paint56_linear_0_1)"/>
</g>
<g style="mix-blend-mode:color-dodge" opacity="0.82">
<path style="mix-blend-mode:color-dodge" d="M501.483 1216.48C481.602 1212.26 464.458 1202.04 449.341 1185.46C431.99 1166.51 424.44 1149.29 426.246 1132.78C429.551 1102.71 462.829 1079.45 501.328 1052.45C548.003 1019.75 600.901 982.695 610.608 924.395C617.7 881.804 601.117 833.612 559.926 777.062C515.942 716.679 430.151 684.487 346.459 696.944C282.165 706.512 164.664 750.294 100.179 936.355L98.9401 935.928C124.327 862.613 160.809 804.318 207.364 762.542C247.759 726.283 295.791 703.159 346.274 695.641C388.113 689.306 430.882 693.915 470.412 709.018C508.268 723.634 539.598 746.899 561.012 776.293C602.375 833.175 619.052 881.651 611.905 924.604C602.102 983.455 548.961 1020.68 502.077 1053.53C463.818 1080.33 430.772 1103.49 427.545 1132.92C425.78 1149.03 433.224 1165.93 450.308 1184.58C514.75 1254.96 607.808 1200.59 725.618 1131.75C816.695 1078.54 919.914 1018.23 1034.83 1000.74C1106.73 989.802 1172.99 995.956 1237.36 1019.71C1310.62 1046.68 1380.11 1095.56 1449.82 1169.12C1599.12 1325.58 1742.08 1396.15 1874.64 1378.82C2072.56 1352.96 2187.79 1143.02 2225.65 1074.01C2228.68 1068.49 2231.03 1064.16 2232.92 1060.96L2234.06 1061.63C2232.21 1064.77 2229.83 1069.13 2226.8 1074.64C2208.56 1107.88 2170.61 1177 2111.91 1242.03C2039.13 1322.61 1959.36 1369.02 1874.81 1380.12C1839.48 1384.74 1803.44 1383.15 1766.67 1375.35C1665.2 1353.85 1558.75 1285.14 1448.87 1170.02C1318.39 1032.29 1186.9 978.906 1035.04 1002.01C920.326 1019.45 817.26 1079.71 726.282 1132.87C666.456 1167.83 614.782 1198.02 568.423 1211.49C543.034 1218.9 520.943 1220.6 501.483 1216.48Z" fill="url(#paint57_linear_0_1)"/>
</g>
<g style="mix-blend-mode:color-dodge" opacity="0.85">
<path style="mix-blend-mode:color-dodge" d="M486.856 1213.87C467.607 1209.79 450.072 1199.59 434.303 1181.53C417.57 1162.36 410.552 1144.96 412.857 1128.33C417.229 1096.81 453.835 1072.93 496.218 1045.29C546.993 1012.18 604.542 974.643 615.095 915.15C622.601 872.788 605.699 824.65 563.48 768.124C518.77 708.312 431.764 676.873 347.035 689.923C282.663 699.805 165.21 743.619 101.459 926.012L100.18 925.565C125.304 853.7 161.57 796.37 207.962 755.153C248.236 719.363 296.267 696.348 346.772 688.571C389.075 681.933 432.374 686.194 472.573 700.949C511.023 715.252 542.832 738.179 564.574 767.268C607.065 824.115 624.027 872.541 616.433 915.323C605.788 975.402 547.971 1013.11 496.967 1046.37C454.875 1073.83 418.488 1097.56 414.213 1128.46C411.964 1144.68 418.87 1161.72 435.328 1180.58C497.962 1252.33 589.462 1198.26 705.302 1129.8C798.903 1074.48 904.991 1011.79 1024.73 996.497C1096.33 987.356 1162.7 995.434 1227.63 1021.22C1301.52 1050.58 1371.82 1101.97 1442.5 1178.25C1589.36 1335.84 1730.63 1406.82 1862.37 1389.21C1998.05 1371.06 2120.04 1260.68 2224.94 1061.13C2228.45 1054.46 2231.22 1049.19 2233.1 1045.98L2234.27 1046.66C2232.41 1049.85 2229.64 1055.11 2226.15 1061.76C2207.44 1097.35 2168.54 1171.32 2107.81 1241.51C2032.36 1328.73 1949.84 1378.87 1862.53 1390.6C1730.33 1408.28 1588.67 1337.16 1441.48 1179.23C1308.98 1036.16 1176.6 978.547 1024.86 997.92C905.429 1013.14 799.466 1075.76 705.98 1131.01C618.552 1182.72 544.931 1226.18 486.856 1213.87Z" fill="url(#paint58_linear_0_1)"/>
</g>
<g style="mix-blend-mode:color-dodge" opacity="0.87">
<path style="mix-blend-mode:color-dodge" d="M471.915 1211.09C452.55 1206.99 434.966 1196.45 419.257 1177.58C403.109 1158.19 396.601 1140.62 399.373 1123.85C404.843 1090.79 444.903 1066.32 491.277 1038C546.161 1004.49 608.367 966.499 619.675 905.835C627.522 863.624 610.318 815.663 567.042 759.199C521.603 699.925 433.325 669.249 347.461 682.883C283.13 693.092 165.799 736.899 102.773 915.665L101.464 915.201C126.287 844.755 162.333 788.412 208.542 747.804C248.682 712.491 296.639 689.56 347.216 681.6C433.655 667.901 522.386 698.772 568.124 758.45C611.66 815.244 628.963 863.567 621.029 906.188C609.596 967.495 547.12 1005.61 491.989 1039.26C447.802 1066.24 406.127 1091.73 400.738 1124.15C398.034 1140.49 404.432 1157.7 420.36 1176.78C481.256 1249.89 571.26 1196.03 685.271 1127.85C781.289 1070.41 890.121 1005.35 1014.62 992.432C1085.95 985.067 1152.45 995.019 1217.91 1022.88C1292.52 1054.63 1363.54 1108.46 1435.18 1187.5C1580.13 1346.6 1720.14 1418.08 1851.31 1399.97C1991.71 1380.6 2117.47 1261.84 2225.08 1047.01C2228.88 1039.47 2231.6 1034.01 2233.29 1031.1L2234.51 1031.8C2232.8 1034.67 2230.1 1040.11 2226.33 1047.65C2208.87 1082.5 2168 1164.1 2105.33 1240.01C2027.11 1334.53 1941.71 1388.83 1851.51 1401.28C1816.4 1406.02 1780.74 1404.6 1746.13 1397.07C1645.82 1375.81 1541.33 1305.99 1434.15 1188.36C1301.41 1041.94 1164.32 978.307 1014.77 993.749C890.585 1006.58 781.893 1071.6 686.043 1128.98C600.594 1180.02 528.591 1223.1 471.915 1211.09Z" fill="url(#paint59_linear_0_1)"/>
</g>
<g style="mix-blend-mode:color-dodge" opacity="0.9">
<path style="mix-blend-mode:color-dodge" d="M456.923 1208.29C437.453 1204.16 419.852 1193.29 404.219 1173.65C388.586 1154 382.586 1136.26 385.807 1119.35C392.417 1084.69 438.127 1058.42 486.51 1030.58C545.512 996.656 612.376 958.217 624.345 896.453C632.492 854.436 614.92 806.551 570.601 750.24C524.434 691.493 434.927 661.589 347.86 675.814C283.535 686.354 166.344 730.125 104.062 905.28L102.701 904.805C127.227 835.757 163.038 780.419 209.085 740.315C249.117 705.562 297.027 682.753 347.659 674.431C435.194 660.118 525.24 690.235 571.726 749.39C616.315 806.089 633.978 854.323 625.75 896.772C613.624 959.174 546.48 997.795 487.206 1031.85C439.106 1059.5 393.676 1085.65 387.2 1119.63C384.06 1136.1 389.984 1153.48 405.319 1172.76C464.576 1247.22 553.218 1193.51 665.443 1125.52C712.511 1097.03 765.873 1064.68 822.472 1038.89C887.357 1009.31 946.884 992.733 1004.45 988.166C1075.51 982.537 1142.14 994.363 1208.14 1024.32C1282.34 1057.98 1356.2 1115.92 1427.81 1196.57C1571.28 1357.43 1710.33 1429.5 1841.18 1410.8C1941.25 1396.47 2089.25 1319.05 2225.85 1031.45C2229.58 1023.61 2232.05 1018.41 2233.45 1016.02L2234.69 1016.74C2233.32 1019.09 2230.74 1024.53 2227.16 1032.07C2209.69 1068.85 2168.77 1154.95 2104.12 1237.08C2023.18 1339.94 1934.79 1398.85 1841.38 1412.23C1806.53 1417.12 1771.08 1415.8 1736.69 1408.32C1636.76 1387.14 1532.91 1316.61 1426.72 1197.52C1292.03 1045.78 1153.94 977.765 1004.58 989.59C875.745 999.796 764.427 1067.25 666.215 1126.74C582.752 1177.33 512.264 1220.02 456.923 1208.29Z" fill="url(#paint60_linear_0_1)"/>
</g>
<g style="mix-blend-mode:color-dodge" opacity="0.92">
<path style="mix-blend-mode:color-dodge" d="M441.881 1205.46C422.316 1201.31 404.714 1190.13 389.181 1169.71C374.068 1149.85 368.498 1131.89 372.16 1114.82C379.94 1078.53 429.47 1051.6 481.905 1023.11C545.011 988.803 616.528 949.933 629.085 887.106C637.447 845.267 619.478 797.595 574.157 741.346C527.242 683.121 436.484 653.931 348.286 668.828C283.989 679.649 166.942 723.417 105.409 894.984L104.01 894.479C128.24 826.83 163.826 772.499 209.69 732.95C248.944 698.858 296.796 676.177 348.045 667.37C436.746 652.437 528.084 681.794 575.321 740.417C620.94 797.026 639.007 845.115 630.551 887.395C617.849 950.905 546.008 989.96 482.628 1024.41C430.461 1052.74 381.261 1079.5 373.622 1115.13C370.096 1131.77 375.544 1149.32 390.37 1168.82C416.876 1203.64 450.983 1213.6 497.722 1200.15C540.526 1187.84 589.387 1157.85 645.946 1123.12C693.964 1093.63 748.416 1060.23 806.57 1033.84C873.327 1003.58 934.755 987.262 994.357 983.961C1143.99 975.69 1283.39 1048.22 1420.51 1205.7C1562.82 1368.63 1701.24 1441.38 1831.93 1421.91C1928.32 1407.58 2019.61 1343.61 2103.19 1231.91C2169.65 1143.1 2211.48 1049.86 2227.25 1014.76C2230.49 1007.56 2232.62 1002.8 2233.64 1001.04L2234.92 1001.78C2233.94 1003.48 2231.81 1008.21 2228.6 1015.38C2212.84 1050.49 2170.95 1143.86 2104.39 1232.81C2020.57 1344.83 1928.98 1408.94 1832.15 1423.37C1797.45 1428.45 1762.13 1427.25 1727.86 1419.81C1628.16 1398.68 1524.84 1327.34 1419.41 1206.67C1282.59 1049.56 1143.58 977.197 994.429 985.493C860.969 992.863 742.188 1065.81 646.714 1124.42C565.059 1174.52 495.972 1216.91 441.881 1205.46Z" fill="url(#paint61_linear_0_1)"/>
</g>
<g style="mix-blend-mode:color-dodge" opacity="0.95">
<path style="mix-blend-mode:color-dodge" d="M426.853 1202.73C406.236 1198.36 388.964 1186.14 374.143 1165.78C359.498 1145.68 354.376 1127.53 358.432 1110.25C367.412 1072.29 420.862 1044.71 477.436 1015.51C544.623 980.832 620.786 941.507 633.861 877.691C642.392 836.042 624.008 788.513 577.666 732.409C530.016 674.699 437.952 646.331 348.621 661.801C284.372 672.917 167.516 716.66 106.743 884.642L105.305 884.117C129.236 817.877 164.581 764.528 210.236 725.55C249.599 691.818 297.315 669.292 348.383 660.333C438.269 644.783 530.913 673.373 578.909 731.475C625.552 787.972 644.047 835.909 635.413 878.042C622.193 942.597 545.687 982.09 478.194 1016.91C421.929 1045.95 368.777 1073.37 359.952 1110.65C355.997 1127.4 361.029 1145.2 375.393 1164.91C401.204 1200.37 434.598 1210.73 480.461 1197.53C522.54 1185.43 570.804 1155.4 626.681 1120.62C724.342 1059.83 845.895 984.174 984.246 979.808C1133.63 975.078 1273.99 1051.99 1413.2 1214.87C1554.71 1380.12 1692.74 1453.58 1823.46 1433.2C2030.08 1400.95 2166.29 1145.96 2229.1 996.813C2231.64 990.76 2233.17 987.129 2233.81 986.054L2235.12 986.816C2234.55 987.794 2232.93 991.627 2230.5 997.397C2216.69 1030.19 2174.67 1129.98 2106.23 1226.47C2067.45 1281.14 2026.33 1326.01 1984.02 1359.78C1932.44 1400.9 1878.54 1426.12 1823.68 1434.66C1692.4 1455.13 1553.9 1381.51 1412.03 1215.83C1273.13 1053.35 1133.22 976.595 984.261 981.294C846.34 985.653 724.988 1061.19 627.47 1121.87C571.491 1156.72 523.151 1186.8 480.87 1198.97C460.609 1204.79 442.737 1206.09 426.853 1202.73Z" fill="url(#paint62_linear_0_1)"/>
</g>
<g style="mix-blend-mode:color-dodge" opacity="0.97">
<path style="mix-blend-mode:color-dodge" d="M411.786 1199.86C391.085 1195.48 373.843 1182.91 359.108 1161.83C344.934 1141.48 340.245 1123.1 344.745 1105.65C355.006 1065.95 412.479 1037.7 473.315 1007.78C509.966 989.76 547.857 971.123 578.45 948.752C613.039 923.504 632.777 897.174 638.809 868.246C647.464 826.788 628.65 779.42 581.28 723.451C532.864 666.293 439.486 638.678 348.91 654.786C284.731 666.192 168.085 709.88 108.036 874.29L106.566 873.759C130.203 808.907 165.295 756.548 210.742 718.13C250.204 684.729 297.796 662.345 348.697 653.246C394.065 645.182 440.605 647.816 483.283 660.894C524.223 673.406 559.462 695.29 582.498 722.577C630.204 778.936 649.134 826.736 640.37 868.709C634.256 898.026 614.31 924.718 579.404 950.163C548.703 972.577 510.75 991.244 474.04 1009.29C413.535 1039.04 356.38 1067.14 346.3 1106.15C341.91 1123.12 346.535 1141.08 360.418 1161.04C385.632 1197.09 418.361 1207.84 463.409 1194.85C504.801 1182.93 552.486 1152.83 607.708 1117.98C707.298 1054.99 831.348 976.729 974.117 975.584C1044.46 975.022 1111.52 992.399 1179.15 1028.72C1255.03 1069.48 1331.35 1135.18 1405.86 1224.01C1546.94 1391.9 1684.9 1466.09 1815.91 1444.53C1920.54 1427.31 2019.21 1350.33 2109.16 1215.73C2141.18 1167.82 2188.38 1087.6 2231.39 977.488C2233.03 973.265 2233.75 971.549 2233.97 971.102L2235.33 971.883C2235.12 972.245 2234.17 974.682 2232.85 978.061C2189.79 1088.31 2142.53 1168.6 2110.49 1216.54C2070.44 1276.48 2027.85 1325.74 1983.9 1362.98C1930.03 1408.63 1873.6 1436.57 1816.19 1446.02C1781.35 1451.69 1745.75 1450.76 1711.26 1443.27C1611.72 1422.17 1509.03 1349.14 1404.7 1224.96C1263.66 1057.03 1122.79 975.954 974.148 977.151C831.775 978.292 707.995 1056.42 608.537 1119.2C553.214 1154.12 505.44 1184.28 463.845 1196.22C444.342 1201.84 427.112 1203.11 411.786 1199.86Z" fill="url(#paint63_linear_0_1)"/>
</g>
<path style="mix-blend-mode:color-dodge" d="M396.647 1197.08C375.882 1192.68 358.678 1179.73 344.07 1157.9C330.297 1137.31 325.992 1118.73 330.885 1101.09C342.389 1059.67 403.962 1030.74 469.14 1000.09C507.962 981.841 548.098 962.988 580.37 940.369C616.807 914.853 637.54 888.184 643.749 858.833C652.502 817.538 633.212 770.344 584.846 714.559C535.672 657.867 440.975 631.028 349.167 647.764C285.061 659.449 168.666 703.092 109.36 863.945L107.852 863.384C131.195 799.921 166.031 748.562 211.261 710.703C250.781 677.668 298.19 655.436 348.867 646.173C394.781 637.807 441.956 640.092 485.307 652.796C526.888 664.982 562.668 686.542 586.047 713.506C634.778 769.698 654.17 817.342 645.306 859.163C638.999 888.922 618.064 915.922 581.279 941.682C548.894 964.365 508.713 983.275 469.807 1001.56C404.96 1032.05 343.725 1060.83 332.418 1101.53C327.679 1118.7 331.893 1136.84 345.387 1157.02C369.934 1193.73 401.976 1204.87 446.254 1192.09C487.032 1180.32 534.16 1150.1 588.782 1115.12C683.425 1054.52 801.171 979.09 936.724 971.9C1011.1 967.963 1082.2 984.274 1154.09 1021.78C1235.71 1064.35 1317.95 1135.47 1398.54 1233.12C1540.47 1405.1 1679.53 1479.89 1811.87 1455.44C1952 1429.53 2059.32 1295.22 2124.69 1187.09C2195.55 1069.87 2233.71 957.356 2234.07 956.223L2235.61 956.747C2235.23 957.864 2197.02 1070.53 2126.06 1187.93C2084.37 1256.88 2039.71 1313.95 1993.31 1357.53C1935.26 1412.05 1874.32 1445.48 1812.15 1457.02C1776.14 1463.62 1739.19 1463.02 1703.42 1455.27C1603.85 1434.17 1501.31 1360.18 1397.28 1234.15C1245.62 1050.37 1094.99 965.118 936.801 973.51C801.724 980.68 684.138 1055.98 589.648 1116.48C534.955 1151.54 487.665 1181.79 446.713 1193.61C427.992 1199.01 411.373 1200.2 396.647 1197.08Z" fill="url(#paint64_linear_0_1)"/>
</g>
</g>
<defs>
<linearGradient id="paint0_linear_0_1" x1="118.443" y1="904.662" x2="2244.3" y2="904.662" gradientUnits="userSpaceOnUse">
<stop stop-color="#5B57AB"/>
<stop offset="1" stop-color="#7449A4"/>
</linearGradient>
<linearGradient id="paint1_linear_0_1" x1="125.638" y1="914.149" x2="2241.25" y2="1362.54" gradientUnits="userSpaceOnUse">
<stop stop-color="#47C0F0"/>
<stop offset="0.5" stop-color="#00A0E3"/>
<stop offset="1" stop-color="#008BD2"/>
</linearGradient>
<linearGradient id="paint2_linear_0_1" x1="124.71" y1="914.172" x2="2238.38" y2="1362.15" gradientUnits="userSpaceOnUse">
<stop stop-color="#47BAEB"/>
<stop offset="0.5" stop-color="#039CDF"/>
<stop offset="1" stop-color="#0488CF"/>
</linearGradient>
<linearGradient id="paint3_linear_0_1" x1="123.851" y1="913.869" x2="2235.57" y2="1361.44" gradientUnits="userSpaceOnUse">
<stop stop-color="#46B4E6"/>
<stop offset="0.5" stop-color="#0798DC"/>
<stop offset="1" stop-color="#0786CD"/>
</linearGradient>
<linearGradient id="paint4_linear_0_1" x1="123.052" y1="913.283" x2="2232.83" y2="1360.44" gradientUnits="userSpaceOnUse">
<stop stop-color="#46ADE1"/>
<stop offset="0.13" stop-color="#36A6DF"/>
<stop offset="0.5" stop-color="#0A95D8"/>
<stop offset="1" stop-color="#0B83CA"/>
</linearGradient>
<linearGradient id="paint5_linear_0_1" x1="122.304" y1="912.454" x2="2230.13" y2="1359.2" gradientUnits="userSpaceOnUse">
<stop stop-color="#45A7DC"/>
<stop offset="0.2" stop-color="#2E9ED9"/>
<stop offset="0.5" stop-color="#0D91D5"/>
<stop offset="1" stop-color="#0F80C7"/>
</linearGradient>
<linearGradient id="paint6_linear_0_1" x1="121.605" y1="911.394" x2="2227.49" y2="1357.72" gradientUnits="userSpaceOnUse">
<stop stop-color="#45A1D7"/>
<stop offset="0.23" stop-color="#2B97D4"/>
<stop offset="0.5" stop-color="#118DD1"/>
<stop offset="1" stop-color="#137DC5"/>
</linearGradient>
<linearGradient id="paint7_linear_0_1" x1="120.962" y1="910.126" x2="2224.89" y2="1356.04" gradientUnits="userSpaceOnUse">
<stop stop-color="#449BD2"/>
<stop offset="0.25" stop-color="#2A91D0"/>
<stop offset="0.5" stop-color="#1489CE"/>
<stop offset="1" stop-color="#167BC2"/>
</linearGradient>
<linearGradient id="paint8_linear_0_1" x1="119.481" y1="912.757" x2="2221.45" y2="1358.26" gradientUnits="userSpaceOnUse">
<stop stop-color="#4495CD"/>
<stop offset="0.27" stop-color="#2A8CCB"/>
<stop offset="0.5" stop-color="#1785CA"/>
<stop offset="1" stop-color="#1A78BF"/>
</linearGradient>
<linearGradient id="paint9_linear_0_1" x1="117.826" y1="916.208" x2="2217.85" y2="1361.3" gradientUnits="userSpaceOnUse">
<stop stop-color="#448EC8"/>
<stop offset="0.27" stop-color="#2B87C7"/>
<stop offset="0.5" stop-color="#1B82C7"/>
<stop offset="1" stop-color="#1E75BD"/>
</linearGradient>
<linearGradient id="paint10_linear_0_1" x1="116.2" y1="919.522" x2="2214.28" y2="1364.2" gradientUnits="userSpaceOnUse">
<stop stop-color="#4388C3"/>
<stop offset="0.27" stop-color="#2C82C3"/>
<stop offset="0.5" stop-color="#1E7EC3"/>
<stop offset="1" stop-color="#2273BA"/>
</linearGradient>
<linearGradient id="paint11_linear_0_1" x1="114.599" y1="922.721" x2="2210.73" y2="1366.98" gradientUnits="userSpaceOnUse">
<stop stop-color="#4382BE"/>
<stop offset="0.27" stop-color="#2E7DBF"/>
<stop offset="0.5" stop-color="#217AC0"/>
<stop offset="1" stop-color="#2570B7"/>
</linearGradient>
<linearGradient id="paint12_linear_0_1" x1="113.04" y1="925.775" x2="2207.22" y2="1369.62" gradientUnits="userSpaceOnUse">
<stop stop-color="#427CB9"/>
<stop offset="0.26" stop-color="#3178BB"/>
<stop offset="0.5" stop-color="#2576BC"/>
<stop offset="1" stop-color="#296DB5"/>
</linearGradient>
<linearGradient id="paint13_linear_0_1" x1="111.907" y1="926.765" x2="2204.14" y2="1370.2" gradientUnits="userSpaceOnUse">
<stop stop-color="#4276B4"/>
<stop offset="0.25" stop-color="#3374B6"/>
<stop offset="0.5" stop-color="#2872B8"/>
<stop offset="1" stop-color="#2D6AB2"/>
</linearGradient>
<linearGradient id="paint14_linear_0_1" x1="111.774" y1="923.034" x2="2202.06" y2="1366.06" gradientUnits="userSpaceOnUse">
<stop stop-color="#426FAF"/>
<stop offset="0.24" stop-color="#356FB2"/>
<stop offset="0.5" stop-color="#2B6FB5"/>
<stop offset="1" stop-color="#3168AF"/>
</linearGradient>
<linearGradient id="paint15_linear_0_1" x1="111.641" y1="919.303" x2="2199.98" y2="1361.91" gradientUnits="userSpaceOnUse">
<stop stop-color="#4169AA"/>
<stop offset="0.2" stop-color="#386AAE"/>
<stop offset="0.5" stop-color="#2F6BB1"/>
<stop offset="1" stop-color="#3465AD"/>
</linearGradient>
<linearGradient id="paint16_linear_0_1" x1="111.507" y1="915.582" x2="2197.9" y2="1357.78" gradientUnits="userSpaceOnUse">
<stop stop-color="#4163A5"/>
<stop offset="0.17" stop-color="#3A65A9"/>
<stop offset="0.5" stop-color="#3267AE"/>
<stop offset="1" stop-color="#3862AA"/>
</linearGradient>
<linearGradient id="paint17_linear_0_1" x1="111.387" y1="911.843" x2="2195.82" y2="1353.63" gradientUnits="userSpaceOnUse">
<stop stop-color="#405DA0"/>
<stop offset="0.11" stop-color="#3D5FA3"/>
<stop offset="0.5" stop-color="#3563AA"/>
<stop offset="1" stop-color="#3C60A7"/>
</linearGradient>
<linearGradient id="paint18_linear_0_1" x1="111.255" y1="908.112" x2="2193.74" y2="1349.48" gradientUnits="userSpaceOnUse">
<stop stop-color="#40579B"/>
<stop offset="0.14" stop-color="#3D5AA0"/>
<stop offset="0.5" stop-color="#385FA7"/>
<stop offset="1" stop-color="#405DA4"/>
</linearGradient>
<linearGradient id="paint19_linear_0_1" x1="111.126" y1="904.36" x2="2191.67" y2="1345.32" gradientUnits="userSpaceOnUse">
<stop stop-color="#3F5196"/>
<stop offset="0.17" stop-color="#3E569C"/>
<stop offset="0.5" stop-color="#3C5BA3"/>
<stop offset="1" stop-color="#435AA2"/>
</linearGradient>
<linearGradient id="paint20_linear_0_1" x1="110.998" y1="900.608" x2="2189.6" y2="1341.15" gradientUnits="userSpaceOnUse">
<stop stop-color="#3F4A91"/>
<stop offset="0.21" stop-color="#3F529A"/>
<stop offset="0.5" stop-color="#3F58A0"/>
<stop offset="1" stop-color="#47589F"/>
</linearGradient>
<linearGradient id="paint21_linear_0_1" x1="110.875" y1="896.835" x2="2187.53" y2="1336.97" gradientUnits="userSpaceOnUse">
<stop stop-color="#3F448C"/>
<stop offset="0.23" stop-color="#414E96"/>
<stop offset="0.5" stop-color="#42549C"/>
<stop offset="1" stop-color="#4B559C"/>
</linearGradient>
<linearGradient id="paint22_linear_0_1" x1="110.764" y1="893.054" x2="2185.46" y2="1332.77" gradientUnits="userSpaceOnUse">
<stop stop-color="#3E3E87"/>
<stop offset="0.25" stop-color="#434A93"/>
<stop offset="0.5" stop-color="#465098"/>
<stop offset="1" stop-color="#4F529A"/>
</linearGradient>
<linearGradient id="paint23_linear_0_1" x1="111.106" y1="887.083" x2="2183.85" y2="1326.39" gradientUnits="userSpaceOnUse">
<stop stop-color="#3E3882"/>
<stop offset="0.27" stop-color="#464690"/>
<stop offset="0.5" stop-color="#494C95"/>
<stop offset="1" stop-color="#524F97"/>
</linearGradient>
<linearGradient id="paint24_linear_0_1" x1="111.7" y1="879.924" x2="2182.5" y2="1318.82" gradientUnits="userSpaceOnUse">
<stop stop-color="#3D327D"/>
<stop offset="0.02" stop-color="#3E347F"/>
<stop offset="0.29" stop-color="#48438C"/>
<stop offset="0.5" stop-color="#4C4891"/>
<stop offset="1" stop-color="#564D94"/>
</linearGradient>
<linearGradient id="paint25_linear_0_1" x1="112.296" y1="872.754" x2="2181.15" y2="1311.24" gradientUnits="userSpaceOnUse">
<stop stop-color="#3D2B78"/>
<stop offset="0.08" stop-color="#42327E"/>
<stop offset="0.31" stop-color="#4C408A"/>
<stop offset="0.5" stop-color="#50458E"/>
<stop offset="1" stop-color="#5A4A92"/>
</linearGradient>
<linearGradient id="paint26_linear_0_1" x1="112.89" y1="865.595" x2="2179.8" y2="1303.66" gradientUnits="userSpaceOnUse">
<stop stop-color="#3D2573"/>
<stop offset="0.1" stop-color="#442E7B"/>
<stop offset="0.31" stop-color="#4F3C86"/>
<stop offset="0.5" stop-color="#53418A"/>
<stop offset="1" stop-color="#5E478F"/>
</linearGradient>
<linearGradient id="paint27_linear_0_1" x1="113.5" y1="858.417" x2="2178.44" y2="1296.07" gradientUnits="userSpaceOnUse">
<stop stop-color="#3C1F6E"/>
<stop offset="0.12" stop-color="#462B78"/>
<stop offset="0.32" stop-color="#523883"/>
<stop offset="0.5" stop-color="#563D87"/>
<stop offset="1" stop-color="#61458C"/>
</linearGradient>
<linearGradient id="paint28_linear_0_1" x1="114.096" y1="851.247" x2="2177.09" y2="1288.49" gradientUnits="userSpaceOnUse">
<stop stop-color="#3C1969"/>
<stop offset="0.14" stop-color="#4A2875"/>
<stop offset="0.33" stop-color="#56357F"/>
<stop offset="0.5" stop-color="#5A3983"/>
<stop offset="1" stop-color="#65428A"/>
</linearGradient>
<linearGradient id="paint29_linear_0_1" x1="114.694" y1="844.067" x2="2175.75" y2="1280.9" gradientUnits="userSpaceOnUse">
<stop stop-color="#3B1364"/>
<stop offset="0.15" stop-color="#4C2472"/>
<stop offset="0.33" stop-color="#59317D"/>
<stop offset="0.5" stop-color="#5D3580"/>
<stop offset="1" stop-color="#693F87"/>
</linearGradient>
<linearGradient id="paint30_linear_0_1" x1="115.295" y1="836.877" x2="2174.4" y2="1273.29" gradientUnits="userSpaceOnUse">
<stop stop-color="#3B0C5F"/>
<stop offset="0.01" stop-color="#3D0E60"/>
<stop offset="0.18" stop-color="#502270"/>
<stop offset="0.34" stop-color="#5C2E79"/>
<stop offset="0.5" stop-color="#60327C"/>
<stop offset="1" stop-color="#6D3C84"/>
</linearGradient>
<linearGradient id="paint31_linear_0_1" x1="115.911" y1="829.667" x2="2173.06" y2="1265.67" gradientUnits="userSpaceOnUse">
<stop stop-color="#3A065A"/>
<stop offset="0.04" stop-color="#410D5F"/>
<stop offset="0.19" stop-color="#541F6E"/>
<stop offset="0.34" stop-color="#602A76"/>
<stop offset="0.5" stop-color="#642E79"/>
<stop offset="1" stop-color="#703A82"/>
</linearGradient>
<linearGradient id="paint32_linear_0_1" x1="116.489" y1="822.582" x2="2171.73" y2="1258.18" gradientUnits="userSpaceOnUse">
<stop stop-color="#3A0055"/>
<stop offset="0.22" stop-color="#521766"/>
<stop offset="0.47" stop-color="#652974"/>
<stop offset="0.73" stop-color="#70337C"/>
<stop offset="1" stop-color="#74377F"/>
</linearGradient>
<linearGradient id="paint33_linear_0_1" x1="125.638" y1="914.149" x2="2241.25" y2="1362.54" gradientUnits="userSpaceOnUse">
<stop stop-color="#4B0055" stop-opacity="0.1"/>
<stop offset="0.56" stop-color="#FE881C" stop-opacity="0.7"/>
<stop offset="1" stop-color="#FF15B8" stop-opacity="0.1"/>
</linearGradient>
<linearGradient id="paint34_linear_0_1" x1="124.71" y1="914.172" x2="2238.38" y2="1362.15" gradientUnits="userSpaceOnUse">
<stop stop-color="#4B0055" stop-opacity="0.1"/>
<stop offset="0.56" stop-color="#FE881C" stop-opacity="0.7"/>
<stop offset="1" stop-color="#FF15B8" stop-opacity="0.1"/>
</linearGradient>
<linearGradient id="paint35_linear_0_1" x1="123.851" y1="913.869" x2="2235.57" y2="1361.44" gradientUnits="userSpaceOnUse">
<stop stop-color="#4B0055" stop-opacity="0.1"/>
<stop offset="0.56" stop-color="#FE881C" stop-opacity="0.7"/>
<stop offset="1" stop-color="#FF15B8" stop-opacity="0.1"/>
</linearGradient>
<linearGradient id="paint36_linear_0_1" x1="123.049" y1="913.293" x2="2232.82" y2="1360.45" gradientUnits="userSpaceOnUse">
<stop stop-color="#4B0055" stop-opacity="0.1"/>
<stop offset="0.56" stop-color="#FE881C" stop-opacity="0.7"/>
<stop offset="1" stop-color="#FF15B8" stop-opacity="0.1"/>
</linearGradient>
<linearGradient id="paint37_linear_0_1" x1="122.304" y1="912.454" x2="2230.13" y2="1359.2" gradientUnits="userSpaceOnUse">
<stop stop-color="#4B0055" stop-opacity="0.1"/>
<stop offset="0.56" stop-color="#FE881C" stop-opacity="0.7"/>
<stop offset="1" stop-color="#FF15B8" stop-opacity="0.1"/>
</linearGradient>
<linearGradient id="paint38_linear_0_1" x1="121.608" y1="911.383" x2="2227.49" y2="1357.71" gradientUnits="userSpaceOnUse">
<stop stop-color="#4B0055" stop-opacity="0.1"/>
<stop offset="0.56" stop-color="#FE881C" stop-opacity="0.7"/>
<stop offset="1" stop-color="#FF15B8" stop-opacity="0.1"/>
</linearGradient>
<linearGradient id="paint39_linear_0_1" x1="120.962" y1="910.126" x2="2224.89" y2="1356.04" gradientUnits="userSpaceOnUse">
<stop stop-color="#4B0055" stop-opacity="0.1"/>
<stop offset="0.56" stop-color="#FE881C" stop-opacity="0.7"/>
<stop offset="1" stop-color="#FF15B8" stop-opacity="0.1"/>
</linearGradient>
<linearGradient id="paint40_linear_0_1" x1="119.483" y1="912.746" x2="2221.46" y2="1358.25" gradientUnits="userSpaceOnUse">
<stop stop-color="#4B0055" stop-opacity="0.1"/>
<stop offset="0.56" stop-color="#FE881C" stop-opacity="0.7"/>
<stop offset="1" stop-color="#FF15B8" stop-opacity="0.1"/>
</linearGradient>
<linearGradient id="paint41_linear_0_1" x1="117.826" y1="916.207" x2="2217.85" y2="1361.3" gradientUnits="userSpaceOnUse">
<stop stop-color="#4B0055" stop-opacity="0.1"/>
<stop offset="0.56" stop-color="#FE881C" stop-opacity="0.7"/>
<stop offset="1" stop-color="#FF15B8" stop-opacity="0.1"/>
</linearGradient>
<linearGradient id="paint42_linear_0_1" x1="116.201" y1="919.522" x2="2214.28" y2="1364.2" gradientUnits="userSpaceOnUse">
<stop stop-color="#4B0055" stop-opacity="0.1"/>
<stop offset="0.56" stop-color="#FE881C" stop-opacity="0.7"/>
<stop offset="1" stop-color="#FF15B8" stop-opacity="0.1"/>
</linearGradient>
<linearGradient id="paint43_linear_0_1" x1="114.597" y1="922.731" x2="2210.73" y2="1366.99" gradientUnits="userSpaceOnUse">
<stop stop-color="#4B0055" stop-opacity="0.1"/>
<stop offset="0.56" stop-color="#FE881C" stop-opacity="0.7"/>
<stop offset="1" stop-color="#FF15B8" stop-opacity="0.1"/>
</linearGradient>
<linearGradient id="paint44_linear_0_1" x1="113.035" y1="925.795" x2="2207.21" y2="1369.64" gradientUnits="userSpaceOnUse">
<stop stop-color="#4B0055" stop-opacity="0.1"/>
<stop offset="0.56" stop-color="#FE881C" stop-opacity="0.7"/>
<stop offset="1" stop-color="#FF15B8" stop-opacity="0.1"/>
</linearGradient>
<linearGradient id="paint45_linear_0_1" x1="111.902" y1="926.786" x2="2204.13" y2="1370.22" gradientUnits="userSpaceOnUse">
<stop stop-color="#4B0055" stop-opacity="0.1"/>
<stop offset="0.56" stop-color="#FE881C" stop-opacity="0.7"/>
<stop offset="1" stop-color="#FF15B8" stop-opacity="0.1"/>
</linearGradient>
<linearGradient id="paint46_linear_0_1" x1="111.761" y1="923.097" x2="2202.04" y2="1366.12" gradientUnits="userSpaceOnUse">
<stop stop-color="#4B0055" stop-opacity="0.1"/>
<stop offset="0.56" stop-color="#FE881C" stop-opacity="0.7"/>
<stop offset="1" stop-color="#FF15B8" stop-opacity="0.1"/>
</linearGradient>
<linearGradient id="paint47_linear_0_1" x1="111.628" y1="919.366" x2="2199.97" y2="1361.98" gradientUnits="userSpaceOnUse">
<stop stop-color="#4B0055" stop-opacity="0.1"/>
<stop offset="0.56" stop-color="#FE881C" stop-opacity="0.7"/>
<stop offset="1" stop-color="#FF15B8" stop-opacity="0.1"/>
</linearGradient>
<linearGradient id="paint48_linear_0_1" x1="111.498" y1="915.624" x2="2197.89" y2="1357.82" gradientUnits="userSpaceOnUse">
<stop stop-color="#4B0055" stop-opacity="0.1"/>
<stop offset="0.56" stop-color="#FE881C" stop-opacity="0.7"/>
<stop offset="1" stop-color="#FF15B8" stop-opacity="0.1"/>
</linearGradient>
<linearGradient id="paint49_linear_0_1" x1="111.378" y1="911.885" x2="2195.81" y2="1353.67" gradientUnits="userSpaceOnUse">
<stop stop-color="#4B0055" stop-opacity="0.1"/>
<stop offset="0.56" stop-color="#FE881C" stop-opacity="0.7"/>
<stop offset="1" stop-color="#FF15B8" stop-opacity="0.1"/>
</linearGradient>
<linearGradient id="paint50_linear_0_1" x1="111.254" y1="908.112" x2="2193.74" y2="1349.48" gradientUnits="userSpaceOnUse">
<stop stop-color="#4B0055" stop-opacity="0.1"/>
<stop offset="0.56" stop-color="#FE881C" stop-opacity="0.7"/>
<stop offset="1" stop-color="#FF15B8" stop-opacity="0.1"/>
</linearGradient>
<linearGradient id="paint51_linear_0_1" x1="111.129" y1="904.349" x2="2191.67" y2="1345.31" gradientUnits="userSpaceOnUse">
<stop stop-color="#4B0055" stop-opacity="0.1"/>
<stop offset="0.56" stop-color="#FE881C" stop-opacity="0.7"/>
<stop offset="1" stop-color="#FF15B8" stop-opacity="0.1"/>
</linearGradient>
<linearGradient id="paint52_linear_0_1" x1="110.994" y1="900.629" x2="2189.59" y2="1341.18" gradientUnits="userSpaceOnUse">
<stop stop-color="#4B0055" stop-opacity="0.1"/>
<stop offset="0.56" stop-color="#FE881C" stop-opacity="0.7"/>
<stop offset="1" stop-color="#FF15B8" stop-opacity="0.1"/>
</linearGradient>
<linearGradient id="paint53_linear_0_1" x1="110.87" y1="896.856" x2="2187.52" y2="1336.99" gradientUnits="userSpaceOnUse">
<stop stop-color="#4B0055" stop-opacity="0.1"/>
<stop offset="0.56" stop-color="#FE881C" stop-opacity="0.7"/>
<stop offset="1" stop-color="#FF15B8" stop-opacity="0.1"/>
</linearGradient>
<linearGradient id="paint54_linear_0_1" x1="110.762" y1="893.064" x2="2185.46" y2="1332.78" gradientUnits="userSpaceOnUse">
<stop stop-color="#4B0055" stop-opacity="0.1"/>
<stop offset="0.56" stop-color="#FE881C" stop-opacity="0.7"/>
<stop offset="1" stop-color="#FF15B8" stop-opacity="0.1"/>
</linearGradient>
<linearGradient id="paint55_linear_0_1" x1="111.104" y1="887.093" x2="2183.85" y2="1326.4" gradientUnits="userSpaceOnUse">
<stop stop-color="#4B0055" stop-opacity="0.1"/>
<stop offset="0.56" stop-color="#FE881C" stop-opacity="0.7"/>
<stop offset="1" stop-color="#FF15B8" stop-opacity="0.1"/>
</linearGradient>
<linearGradient id="paint56_linear_0_1" x1="111.698" y1="879.934" x2="2182.5" y2="1318.83" gradientUnits="userSpaceOnUse">
<stop stop-color="#4B0055" stop-opacity="0.1"/>
<stop offset="0.56" stop-color="#FE881C" stop-opacity="0.7"/>
<stop offset="1" stop-color="#FF15B8" stop-opacity="0.1"/>
</linearGradient>
<linearGradient id="paint57_linear_0_1" x1="112.294" y1="872.764" x2="2181.15" y2="1311.25" gradientUnits="userSpaceOnUse">
<stop stop-color="#4B0055" stop-opacity="0.1"/>
<stop offset="0.56" stop-color="#FE881C" stop-opacity="0.7"/>
<stop offset="1" stop-color="#FF15B8" stop-opacity="0.1"/>
</linearGradient>
<linearGradient id="paint58_linear_0_1" x1="112.884" y1="865.626" x2="2179.79" y2="1303.7" gradientUnits="userSpaceOnUse">
<stop stop-color="#4B0055" stop-opacity="0.1"/>
<stop offset="0.56" stop-color="#FE881C" stop-opacity="0.7"/>
<stop offset="1" stop-color="#FF15B8" stop-opacity="0.1"/>
</linearGradient>
<linearGradient id="paint59_linear_0_1" x1="113.497" y1="858.427" x2="2178.45" y2="1296.08" gradientUnits="userSpaceOnUse">
<stop stop-color="#4B0055" stop-opacity="0.1"/>
<stop offset="0.56" stop-color="#FE881C" stop-opacity="0.7"/>
<stop offset="1" stop-color="#FF15B8" stop-opacity="0.1"/>
</linearGradient>
<linearGradient id="paint60_linear_0_1" x1="114.098" y1="851.237" x2="2177.1" y2="1288.48" gradientUnits="userSpaceOnUse">
<stop stop-color="#4B0055" stop-opacity="0.1"/>
<stop offset="0.56" stop-color="#FE881C" stop-opacity="0.7"/>
<stop offset="1" stop-color="#FF15B8" stop-opacity="0.1"/>
</linearGradient>
<linearGradient id="paint61_linear_0_1" x1="114.701" y1="844.035" x2="2175.75" y2="1280.86" gradientUnits="userSpaceOnUse">
<stop stop-color="#4B0055" stop-opacity="0.1"/>
<stop offset="0.56" stop-color="#FE881C" stop-opacity="0.7"/>
<stop offset="1" stop-color="#FF15B8" stop-opacity="0.1"/>
</linearGradient>
<linearGradient id="paint62_linear_0_1" x1="115.297" y1="836.866" x2="2174.4" y2="1273.28" gradientUnits="userSpaceOnUse">
<stop stop-color="#4B0055" stop-opacity="0.1"/>
<stop offset="0.56" stop-color="#FE881C" stop-opacity="0.7"/>
<stop offset="1" stop-color="#FF15B8" stop-opacity="0.1"/>
</linearGradient>
<linearGradient id="paint63_linear_0_1" x1="115.913" y1="829.656" x2="2173.06" y2="1265.66" gradientUnits="userSpaceOnUse">
<stop stop-color="#4B0055" stop-opacity="0.1"/>
<stop offset="0.56" stop-color="#FE881C" stop-opacity="0.7"/>
<stop offset="1" stop-color="#FF15B8" stop-opacity="0.1"/>
</linearGradient>
<linearGradient id="paint64_linear_0_1" x1="116.494" y1="822.56" x2="2171.74" y2="1258.16" gradientUnits="userSpaceOnUse">
<stop stop-color="#4B0055" stop-opacity="0.1"/>
<stop offset="0.56" stop-color="#FE881C" stop-opacity="0.7"/>
<stop offset="1" stop-color="#FF15B8" stop-opacity="0.1"/>
</linearGradient>
<clipPath id="clip0_0_1">
<rect width="2221.83" height="1248.42" fill="white" transform="translate(258.845) rotate(11.9664)"/>
</clipPath>
</defs>
</svg>
